<svg width="30" height="30" viewBox="0 0 30 30" fill="none" xmlns="http://www.w3.org/2000/svg">
<g clip-path="url(#clip0_18_728)">
<path opacity="0.963" fill-rule="evenodd" clip-rule="evenodd" d="M14.6192 -0.0292969C14.8535 -0.0292969 15.0879 -0.0292969 15.3223 -0.0292969C15.6383 0.14045 15.8629 0.394356 15.9961 0.732422C16.0352 1.92383 16.0352 3.11524 15.9961 4.30664C15.746 4.99321 15.2676 5.23734 14.5606 5.03906C14.2287 4.9024 14.0236 4.65826 13.9453 4.30664C13.9062 3.11524 13.9062 1.92383 13.9453 0.732422C14.0785 0.394356 14.3031 0.14045 14.6192 -0.0292969Z" fill="#EFEFEF"/>
<path opacity="0.962" fill-rule="evenodd" clip-rule="evenodd" d="M4.71677 4.07227C5.04325 4.04236 5.35575 4.09119 5.65427 4.21875C6.4648 5.0293 7.27538 5.83985 8.08591 6.65039C8.39599 7.21705 8.3081 7.7151 7.82224 8.14453C7.43001 8.33654 7.03937 8.33654 6.65036 8.14453C5.82028 7.31444 4.99021 6.4844 4.16013 5.6543C3.86472 4.94834 4.05027 4.42099 4.71677 4.07227Z" fill="#EFEFEF"/>
<path opacity="0.962" fill-rule="evenodd" clip-rule="evenodd" d="M24.5801 4.07227C25.143 3.97795 25.563 4.17326 25.8398 4.6582C25.9669 4.99889 25.9474 5.33092 25.7813 5.6543C24.9512 6.4844 24.1211 7.31443 23.291 8.14453C22.3956 8.49762 21.8487 8.20465 21.6504 7.26563C21.6782 7.04666 21.7466 6.84158 21.8555 6.65039C22.666 5.83985 23.4766 5.0293 24.2871 4.21875C24.3935 4.17441 24.4911 4.12557 24.5801 4.07227Z" fill="#EFEFEF"/>
<path opacity="0.991" fill-rule="evenodd" clip-rule="evenodd" d="M14.1504 7.41211C17.4232 7.26598 19.9134 8.57455 21.6211 11.3379C23.0514 14.289 22.7975 17.082 20.8594 19.7168C18.6758 22.2087 15.9708 23.0388 12.7441 22.207C9.69042 21.1061 7.92282 18.9479 7.44141 15.7324C7.28438 12.4815 8.58323 10.0108 11.3379 8.32031C12.2312 7.85643 13.1687 7.55373 14.1504 7.41211Z" fill="#EFEFEF"/>
<path opacity="0.963" fill-rule="evenodd" clip-rule="evenodd" d="M-0.0292969 15.3223C-0.0292969 15.0879 -0.0292969 14.8535 -0.0292969 14.6191C0.14045 14.3031 0.394356 14.0785 0.732422 13.9453C1.92383 13.9062 3.11524 13.9062 4.30664 13.9453C4.99321 14.1954 5.23734 14.6739 5.03906 15.3809C4.9024 15.7127 4.65826 15.9178 4.30664 15.9961C3.11524 16.0352 1.92383 16.0352 0.732422 15.9961C0.394356 15.8629 0.14045 15.6383 -0.0292969 15.3223Z" fill="#EFEFEF"/>
<path opacity="0.963" fill-rule="evenodd" clip-rule="evenodd" d="M29.9707 14.6191C29.9707 14.8535 29.9707 15.0879 29.9707 15.3223C29.801 15.6383 29.5471 15.8629 29.209 15.9961C28.0176 16.0352 26.8261 16.0352 25.6348 15.9961C24.9482 15.746 24.7041 15.2675 24.9023 14.5605C25.039 14.2287 25.2831 14.0236 25.6348 13.9453C26.8261 13.9062 28.0176 13.9062 29.209 13.9453C29.5471 14.0785 29.801 14.3031 29.9707 14.6191Z" fill="#EFEFEF"/>
<path opacity="0.962" fill-rule="evenodd" clip-rule="evenodd" d="M6.94337 21.6504C7.72167 21.5596 8.17091 21.9014 8.29102 22.6758C8.26319 22.8947 8.19481 23.0998 8.08594 23.291C7.27542 24.1015 6.46483 24.9121 5.6543 25.7227C4.89794 26.0615 4.36083 25.8564 4.04298 25.1074C3.98808 24.8201 4.02714 24.5467 4.16016 24.2871C4.99024 23.457 5.82032 22.627 6.6504 21.7969C6.75675 21.7525 6.85436 21.7037 6.94337 21.6504Z" fill="#EFEFEF"/>
<path opacity="0.95" fill-rule="evenodd" clip-rule="evenodd" d="M22.3535 21.6504C22.711 21.6054 23.0431 21.6738 23.3496 21.8555C24.1211 22.627 24.8925 23.3984 25.664 24.1699C25.9884 24.7439 25.9201 25.2615 25.4589 25.7227C25.018 25.9329 24.5883 25.9134 24.1699 25.6641C23.3984 24.8926 22.6269 24.1211 21.8554 23.3496C21.4519 22.6009 21.6179 22.0345 22.3535 21.6504Z" fill="#EFEFEF"/>
<path opacity="0.963" fill-rule="evenodd" clip-rule="evenodd" d="M15.3223 29.9707C15.0879 29.9707 14.8535 29.9707 14.6192 29.9707C14.3031 29.801 14.0785 29.5471 13.9453 29.209C13.9062 28.0176 13.9062 26.8262 13.9453 25.6348C14.1954 24.9482 14.6739 24.7041 15.3809 24.9023C15.7127 25.039 15.9178 25.2831 15.9961 25.6348C16.0352 26.8262 16.0352 28.0176 15.9961 29.209C15.8629 29.5471 15.6383 29.801 15.3223 29.9707Z" fill="#EFEFEF"/>
</g>
<defs>
<clipPath id="clip0_18_728">
<rect width="30" height="30" fill="white"/>
</clipPath>
</defs>
</svg>
