<svg width="35" height="35" viewBox="0 0 35 35" fill="none" xmlns="http://www.w3.org/2000/svg">
<rect width="35" height="35" rx="3" fill="#213851"/>
<g clip-path="url(#clip0_12_376)">
<path d="M8.96823 18.1589L7.48034 18.9315C7.36208 19.0148 7.04026 19.3559 7.02732 19.4803C7.01438 19.6048 7.18323 19.8637 7.20558 20.0639C7.25559 20.5176 7.1344 21.0013 7.1444 21.4093C7.15028 21.6389 7.32855 21.8414 7.20558 22.0856C7.3662 22.0738 7.54505 22.1091 7.70214 22.0832C8.02807 22.0298 8.57581 21.8097 8.9094 21.6758C8.93587 21.8009 8.7782 21.8543 8.69289 21.8983C8.37578 22.0621 7.06674 22.4871 6.79081 22.2952C6.7308 22.2535 6.7408 22.1813 6.73315 22.1185C6.65373 21.4645 6.73845 20.4953 6.73609 19.8003C6.73609 19.7809 6.73609 19.7609 6.73609 19.7416C6.88847 19.4304 7.05379 19.1228 7.32855 18.8968C7.62801 18.6503 8.58699 18.2212 8.96823 18.1589Z" fill="#F5C22F"/>
<path d="M9.9078 17.9241C9.97193 18.058 9.70012 18.0909 9.58186 18.092C9.5342 18.092 9.50243 18.041 9.49655 18.0415C9.59833 17.957 9.77954 17.9288 9.9078 17.9241Z" fill="#F5C22F"/>
<path d="M9.37946 18.0416C9.42299 18.2318 9.2412 18.1425 9.08588 18.159C9.15353 18.0527 9.26414 18.0463 9.37946 18.0416Z" fill="#F5C22F"/>
<path d="M6.85316 11.3593C6.85787 11.2948 6.83375 11.2138 6.912 11.1832C6.89729 11.2384 6.93494 11.3224 6.85316 11.3593Z" fill="#213851"/>
<path d="M10.2602 20.4448C10.2743 20.5822 10.1678 20.7137 10.0843 20.8094C9.79249 21.1399 9.37301 21.5126 8.96823 21.6758C8.93823 21.5426 9.04354 21.5526 9.11414 21.5015C9.59187 21.1545 9.87839 20.8628 10.2608 20.4448H10.2602Z" fill="#F5C22F"/>
<path d="M21.7751 11.4768C21.7804 11.5149 21.7704 11.556 21.7751 11.5942L21.8339 11.7116C21.8357 11.7309 21.8339 11.7509 21.8339 11.7703C21.8569 12.5516 21.4762 13.5959 21.1291 14.291L21.0114 14.5252C20.9579 14.6109 20.902 14.7483 20.8938 14.7594C20.8426 14.8316 20.862 14.7806 20.7761 14.9355C20.612 15.2308 19.9424 15.4903 19.7189 16.0491C19.68 16.0515 19.64 16.0456 19.6012 16.0491C19.2959 16.0761 18.7475 16.4489 18.3675 16.5769C18.3422 16.4589 18.0074 16.5922 18.0745 16.4313C18.1645 16.2141 18.5357 16.1442 18.6881 15.9881C18.8823 15.7897 19.0888 15.2831 19.2594 15.0336C19.4635 14.7348 19.7206 14.4829 19.9183 14.1671C20.2025 13.7139 20.469 13.0136 20.8079 12.5927C20.995 12.3597 21.2933 12.2857 21.3062 11.8589C21.285 11.802 21.1544 11.8231 21.0979 11.8266C20.3649 11.8736 19.4912 12.0479 18.7793 12.2393C18.1145 12.4178 17.525 12.7242 16.8996 12.9426C17.1855 12.1383 17.2143 11.3805 16.6631 10.6872C16.0941 9.97161 15.2775 9.66048 14.3733 9.89471C14.3144 9.89471 14.2556 9.89471 14.1968 9.89471C13.6049 9.89647 12.2617 10.173 11.7693 10.4911C11.2769 10.8093 10.8486 11.4615 10.8486 12.0339V15.1111C10.9645 15.1369 10.9774 15.0987 11.048 15.0465C11.1568 14.9655 11.2021 14.8745 11.3751 14.7864C11.4898 14.7283 11.6128 14.6931 11.7299 14.642C11.7458 14.6491 11.8175 14.645 11.8475 14.642C12.057 14.6227 12.3547 14.5035 12.5888 14.473C13.5461 14.3485 14.7092 14.3057 15.6076 13.9969C15.637 13.9869 15.69 14.0057 15.7253 13.9969C15.9312 13.9464 15.8076 13.9118 15.8429 13.8795C15.8512 13.8718 15.8806 13.8842 15.9018 13.8795C15.9518 13.8683 16.0224 13.8871 16.0783 13.8795C15.9918 13.991 15.9023 14.0303 15.9018 14.2311C15.8823 14.2511 15.8635 14.271 15.8429 14.2898C15.7406 14.3855 15.7047 14.4348 15.6664 14.5827C15.6488 14.6039 15.6247 14.6197 15.6076 14.6414C15.5017 14.7753 15.4964 14.7324 15.4311 14.9344C15.4252 14.952 15.437 14.9755 15.4311 14.9931C15.324 15.0306 15.2975 15.104 15.2528 15.1956C14.9434 15.829 14.8892 16.5845 14.9028 17.279C13.5396 17.3207 12.1988 17.6312 10.8491 17.8067C10.6303 17.8349 10.3349 17.8067 10.1443 17.9241C10.0661 17.9259 9.98723 17.9212 9.90957 17.9241C9.78132 17.9288 9.60011 17.957 9.49833 18.0415C9.4595 18.0439 9.42008 18.0398 9.38066 18.0415C9.26535 18.0462 9.15474 18.0521 9.08708 18.1589C9.04884 18.163 9.00589 18.1531 8.96942 18.1589C8.58817 18.2212 7.62919 18.6509 7.32973 18.8968C7.05498 19.1228 6.88907 19.4304 6.73728 19.7416C6.72963 17.1064 6.54195 13.9875 6.85494 11.4181C6.8573 11.3987 6.85318 11.3787 6.85494 11.3594C6.93672 11.3224 6.89907 11.2384 6.91378 11.1832C7.40798 9.29535 8.88823 7.87532 10.8462 7.45911C12.137 7.18438 13.5584 7.16736 14.8433 6.84567C16.1647 6.73648 17.3185 6.55156 18.584 7.06991C20.4278 7.82484 21.5186 9.53779 21.7757 11.4768H21.7751Z" fill="#FEFDFD"/>
<path d="M28.6486 10.4213C28.9834 10.4947 29.5158 9.75679 29.7347 9.71687C29.8529 9.69515 29.8135 9.73155 29.8235 9.80434C29.8553 10.028 29.8 10.3062 29.8235 10.5381L29.8818 10.3039C29.8818 10.4295 29.9394 10.6866 29.9406 10.8903C29.7629 10.8575 29.8276 10.9796 29.8229 11.0929C29.7506 12.9227 29.8988 14.7788 29.8253 16.608C29.8153 16.8511 29.6658 17.1675 29.8229 17.397C29.6376 18.5112 28.4233 20.5787 27.2966 20.9139L27.2672 20.8564L27.2378 20.9139C27.219 20.918 27.1972 20.9092 27.1789 20.9139C27.106 20.9333 27.0107 20.9051 26.8883 20.9474C26.7659 20.9896 26.6953 21.1423 26.6677 21.1475C26.2035 21.2374 26.0188 21.2867 25.6057 21.437C25.261 21.562 25.1151 21.4141 24.9244 21.4387C24.8856 21.444 24.8927 21.5479 24.848 21.5579C23.6678 21.8338 22.2222 21.8074 20.9767 21.9641C20.8644 21.9782 20.9208 22.0762 20.8085 22.0903C20.289 22.1555 19.2105 22.1079 18.7211 21.9371C18.2316 21.7663 17.7527 21.6172 17.2502 21.4411C17.142 21.1704 17.1131 21.3342 16.9719 21.2497C16.8125 21.1546 16.493 20.7613 16.3707 20.5922C15.9947 20.0745 15.67 19.7845 15.4229 19.1904C15.3876 19.1053 15.3434 19.0184 15.2528 18.9791C15.2481 18.9609 15.2581 18.9386 15.2528 18.9204C15.1881 18.6896 15.1875 18.3697 15.0181 18.1584C15.0169 18.139 15.0193 18.1191 15.0181 18.0997C14.9475 16.8276 15.041 16.1754 15.4293 14.9931C15.4352 14.9755 15.4234 14.952 15.4293 14.9344C15.6117 14.9409 15.6217 14.7935 15.6058 14.6415C15.6229 14.6198 15.647 14.6039 15.6647 14.5828C15.7411 14.4912 15.8164 14.4425 15.8412 14.2898C15.8612 14.2711 15.8806 14.2511 15.9 14.2311C15.9041 14.2264 15.9676 14.2488 16.0194 14.1906C16.1389 14.0586 16.3483 13.7721 16.3695 13.586C16.3871 13.5649 16.4101 13.5478 16.4283 13.5273C16.4466 13.5067 16.4683 13.4891 16.4871 13.4686C16.506 13.448 16.5277 13.4304 16.546 13.4099H17.192C17.0578 13.6717 17.0437 13.974 16.9396 14.2423C16.6613 14.9585 15.9529 15.5455 15.5558 16.2024C15.4258 16.4172 15.3611 16.6937 15.1946 16.8963C15.2493 16.9814 15.3093 16.9779 15.3976 16.9884C15.7776 17.0325 16.1859 16.9626 16.546 16.9268C17.1626 16.8657 17.7791 16.7724 18.3675 16.5752C18.7475 16.4478 19.2959 16.075 19.6012 16.0474C19.5188 16.5429 19.3788 16.9297 19.4759 17.4363C19.4965 17.5449 19.4247 17.6647 19.6012 17.6301C19.6024 17.6494 19.6012 17.6694 19.6012 17.6888C19.6012 17.6976 19.5435 17.7345 19.543 17.7815C19.54 17.9934 19.9289 18.5429 20.0983 18.685C20.2366 18.8018 20.762 19.0789 20.9238 19.0935C20.9708 19.0976 21.0044 19.0366 21.0114 19.0366C21.0309 19.0366 21.0509 19.0354 21.0703 19.0366C21.1115 19.1704 21.2221 19.1511 21.3315 19.1575C21.6092 19.174 22.0175 19.2004 22.2452 19.0366C22.9965 18.9744 24.0837 18.7894 24.7715 18.5088C24.9762 18.4255 25.1721 18.3738 25.3245 18.149C25.3545 18.1044 25.3463 18.0075 25.3681 17.9893C25.4139 17.9518 25.5616 18.0058 25.591 17.9782C25.6093 17.9606 25.5828 17.8455 25.6087 17.7933C26.047 16.9151 25.9058 16.0427 25.8858 15.0823C25.8776 14.6814 25.897 14.2781 25.8881 13.8778C25.8493 13.8772 25.8099 13.8778 25.7711 13.8778C25.5851 13.8813 25.3669 14.0685 25.1833 14.1707C24.9521 14.0908 24.7785 14.2576 24.6226 14.2852C24.0419 14.3867 23.1777 14.3392 22.6388 14.4654C22.5911 14.4765 22.6229 14.5716 22.514 14.5857C22.2293 14.6227 21.851 14.5393 21.5662 14.5763C21.4609 14.5898 21.4927 14.6785 21.4386 14.6943C21.3333 14.726 20.9908 14.8282 20.8949 14.7565C20.9032 14.7454 20.9591 14.608 21.0126 14.5223C21.0791 14.4155 21.085 14.3785 21.1303 14.2881C21.4774 13.593 21.8581 12.5487 21.8351 11.7674C22.7859 11.6652 23.8254 11.3412 24.7727 11.2983C25.0151 11.2872 25.2592 11.2907 25.4975 11.3394L26.1235 11.0641C26.1623 11.0659 26.2017 11.0629 26.2411 11.0641C26.5953 11.0764 26.7389 11.0418 27.0942 11.0042C27.2048 10.9925 27.3313 11.0747 27.299 10.8886C27.3184 10.8862 27.3384 10.8909 27.3578 10.8886H27.4166C27.5337 10.8739 27.6543 10.8545 27.769 10.8299C27.8985 10.8023 28.0644 10.8839 28.0626 10.6538C28.1015 10.6532 28.1415 10.6514 28.1803 10.6538C28.2897 10.6608 28.4527 10.8651 28.415 10.5364C28.4309 10.5287 28.4568 10.5434 28.4739 10.5364L28.5915 10.419C28.6086 10.4125 28.6333 10.4254 28.6504 10.419L28.6486 10.4213ZM29.8529 10.6561V10.7148C29.8912 10.6955 29.8912 10.6755 29.8529 10.6561Z" fill="#FBB918"/>
<path d="M10.1431 17.9241C10.1508 17.9241 10.2019 17.9852 10.2849 17.9858C10.3902 17.9869 10.6573 17.8707 10.7256 17.9288C10.8832 18.0627 10.7256 19.3612 10.6714 19.6236C10.6673 19.6424 10.6756 19.6635 10.6714 19.6823C10.4543 19.6424 10.605 19.8607 10.542 19.9641C10.4991 20.0345 10.2125 20.0727 10.319 20.3855C10.3002 20.4055 10.2784 20.4243 10.2602 20.4442C9.87778 20.8622 9.59067 21.154 9.11353 21.5009C9.04352 21.552 8.93762 21.542 8.96762 21.6753C8.95056 21.6823 8.92585 21.6682 8.90879 21.6753C8.5752 21.8091 8.02746 22.0292 7.70153 22.0827C7.54444 22.1085 7.36618 22.0733 7.20497 22.085C7.32794 21.8408 7.14967 21.6383 7.14379 21.4087C7.13378 21.0008 7.25498 20.517 7.20497 20.0633C7.18262 19.8625 7.01318 19.6077 7.02671 19.4798C7.04024 19.3518 7.36147 19.0142 7.47973 18.9309L8.96762 18.1583C9.0041 18.1525 9.04705 18.1625 9.08529 18.1583C9.24061 18.1419 9.4224 18.2311 9.37887 18.0409C9.4177 18.0392 9.4577 18.0433 9.49653 18.0409C9.50242 18.0409 9.53419 18.092 9.58184 18.0914C9.7001 18.0903 9.97191 18.0574 9.90778 17.9235C9.98603 17.9206 10.0643 17.9253 10.1425 17.9235L10.1431 17.9241Z" fill="#FBB918"/>
<path d="M18.7793 12.2388C19.4912 12.0474 20.3648 11.8736 21.0979 11.8261C21.1544 11.8225 21.285 11.8014 21.3062 11.8584C21.2932 12.2851 20.9949 12.3597 20.8079 12.5921C20.4696 13.013 20.2025 13.7134 19.9183 14.1666C19.7206 14.4824 19.4635 14.7342 19.2594 15.033C19.0887 15.2825 18.8822 15.7885 18.6881 15.9875C18.5357 16.1437 18.1645 16.213 18.0745 16.4307C18.008 16.5916 18.3427 16.4583 18.3674 16.5763C17.7797 16.7736 17.1625 16.8669 16.546 16.928L16.0176 16.8693C16.0218 16.6074 16.2318 16.5159 16.3595 16.3039C16.8831 15.4316 17.5655 14.6925 18.1233 13.8413C18.308 13.5596 18.4292 13.2021 18.5928 12.9027C18.6687 12.7636 18.924 12.473 18.9546 12.3838C18.9981 12.257 18.8228 12.3121 18.7793 12.2388Z" fill="#FEE092"/>
<path d="M18.7793 12.2387C18.8228 12.3127 18.9982 12.2569 18.9546 12.3837C18.924 12.4723 18.6687 12.7629 18.5928 12.9026C18.4298 13.202 18.3086 13.5589 18.1233 13.8413C17.5656 14.6919 16.8831 15.4316 16.3595 16.3039C16.2318 16.5164 16.0218 16.608 16.0177 16.8692L16.546 16.9279C16.1859 16.9637 15.7776 17.033 15.3976 16.9896C15.3093 16.9796 15.2493 16.9831 15.1946 16.8974C15.3611 16.6949 15.4258 16.4184 15.5558 16.2035C15.9529 15.5466 16.6619 14.9596 16.9396 14.2434C17.0437 13.9751 17.0578 13.6728 17.192 13.4116H16.546C16.646 13.2977 16.7743 12.986 16.8984 12.9426C17.5244 12.7242 18.1139 12.4178 18.7781 12.2393L18.7793 12.2387Z" fill="#F5C22F"/>
<path d="M25.1827 14.173C24.9333 14.3121 24.9162 14.328 24.6073 14.3902C23.3453 14.6438 22.0451 14.7201 20.7767 14.935C20.8626 14.7806 20.8432 14.8311 20.8943 14.7589C20.9902 14.8299 21.3326 14.7278 21.438 14.6966C21.4921 14.6802 21.4603 14.5922 21.5656 14.5786C21.8504 14.5417 22.2287 14.625 22.5134 14.588C22.6223 14.574 22.5905 14.4789 22.6382 14.4677C23.1771 14.3415 24.0413 14.389 24.622 14.2875C24.7779 14.2605 24.9515 14.0932 25.1827 14.173Z" fill="#F5C22F"/>
<path d="M15.0193 18.1002C14.8592 17.8625 14.9069 17.5502 14.9016 17.2796C14.8886 16.5851 14.9428 15.8296 15.2516 15.1962C15.2964 15.1046 15.3228 15.0312 15.4299 14.9937C15.0416 16.1759 14.9481 16.8281 15.0187 18.1002H15.0193Z" fill="#F5C22F"/>
<path d="M10.848 17.8073C10.8038 18.4043 10.9762 19.08 10.6715 19.6242C10.7262 19.3618 10.8833 18.0633 10.7256 17.9294C10.6573 17.8713 10.3896 17.9869 10.2849 17.9864C10.202 17.9858 10.1508 17.9247 10.1431 17.9247C10.3343 17.8079 10.6291 17.8361 10.848 17.8073Z" fill="#F5C22F"/>
<path d="M19.7189 16.0486C19.4929 16.6127 19.5747 17.0618 19.6012 17.6312C19.4247 17.6653 19.4965 17.5461 19.4759 17.4375C19.3788 16.9309 19.5188 16.5446 19.6012 16.0486C19.64 16.0451 19.68 16.0509 19.7189 16.0486Z" fill="#F5C22F"/>
<path d="M16.3701 13.5865C16.3489 13.7726 16.1388 14.0585 16.02 14.1912C15.9676 14.2493 15.9047 14.227 15.9006 14.2317C15.9006 14.0309 15.99 13.9916 16.0771 13.8801C16.1689 13.7615 16.2953 13.6752 16.3707 13.5871L16.3701 13.5865Z" fill="#F5C22F"/>
<path d="M15.4305 14.935C15.4952 14.7324 15.5005 14.7759 15.607 14.642C15.6229 14.7941 15.6135 14.9414 15.4305 14.935Z" fill="#F5C22F"/>
<path d="M15.6653 14.5833C15.7035 14.4354 15.7394 14.3861 15.8418 14.2904C15.8176 14.443 15.7423 14.4918 15.6653 14.5833Z" fill="#F5C22F"/>
<path d="M21.8339 11.711L21.7751 11.5936C21.7757 11.6 21.8239 11.6106 21.8339 11.711Z" fill="#213851"/>
<path d="M21.0114 14.5246L21.1291 14.2904C21.0838 14.3808 21.0779 14.4178 21.0114 14.5246Z" fill="#F5C22F"/>
<path d="M15.254 18.9796C15.344 19.0189 15.3881 19.1058 15.424 19.1909C15.6711 19.785 15.9959 20.075 16.3718 20.5928C16.4948 20.7618 16.8143 21.1552 16.9731 21.2503C17.1143 21.3348 17.1431 21.1704 17.2514 21.4416C17.7538 21.6171 18.2174 21.761 18.7222 21.9377C19.227 22.1144 20.2901 22.1566 20.8096 22.0909C20.922 22.0768 20.8655 21.9788 20.9779 21.9647C22.224 21.8079 23.6689 21.8343 24.8491 21.5584C24.8933 21.5479 24.8862 21.444 24.9256 21.4393C25.1162 21.4146 25.2621 21.5626 25.6069 21.4375C26.0199 21.2872 26.2047 21.2379 26.6689 21.1481C26.6959 21.1428 26.7683 20.9896 26.8895 20.9479C27.0107 20.9063 27.1072 20.9338 27.1801 20.9145C26.7195 21.2456 26.0458 21.4264 25.4898 21.5432C23.7207 21.9159 21.8251 21.9882 20.0419 22.3263C19.4147 22.3316 17.7774 21.9518 17.2879 21.5637C17.2214 21.5109 17.2643 21.4739 17.2514 21.4416C16.4471 21.1604 15.474 19.795 15.254 18.9796Z" fill="#F5C22F"/>
<path d="M15.254 18.9209C15.0504 18.7677 15.0369 18.4002 15.0192 18.1589C15.1893 18.3703 15.1893 18.6902 15.254 18.9209Z" fill="#F5C22F"/>
<path d="M10.6714 19.6829C10.615 19.9482 10.5079 20.1883 10.319 20.3861C10.2125 20.0732 10.4991 20.0345 10.542 19.9646C10.605 19.8613 10.4543 19.6429 10.6714 19.6829Z" fill="#F5C22F"/>
<path d="M27.2978 20.9139C27.2801 20.9192 27.2584 20.9092 27.239 20.9139L27.2684 20.8564L27.2978 20.9139Z" fill="#F5C22F"/>
<path d="M25.7699 11.0664C25.7487 9.91872 25.654 8.89376 26.4735 7.98739C27.2584 7.11917 28.3756 6.75697 29.5011 6.67068C29.6282 6.6607 29.7564 6.67302 29.8829 6.6695C29.9182 7.50133 29.9447 8.32963 29.9441 9.1638C29.9441 9.30762 29.8818 9.44675 29.8829 9.54185C29.3687 9.62638 29.1505 10.2345 28.6492 10.4212C28.6321 10.4277 28.6074 10.4148 28.5904 10.4212C28.5056 10.4541 28.4803 10.5351 28.4727 10.5386C28.4556 10.5457 28.4297 10.531 28.4139 10.5386C28.345 10.5715 28.2291 10.5504 28.1791 10.656C28.1403 10.6537 28.1003 10.6554 28.0614 10.656C27.9567 10.6578 27.7079 10.7048 27.7679 10.8321C27.6531 10.8568 27.5325 10.8762 27.4155 10.8908C27.4125 10.8908 27.396 10.8861 27.3566 10.8908C27.3372 10.8932 27.3172 10.8885 27.2978 10.8908C26.9566 10.9331 26.5465 10.9055 26.2406 11.067C26.2017 11.0658 26.1623 11.0687 26.1229 11.067C26.0258 11.0623 25.854 11.0505 25.7705 11.067L25.7699 11.0664Z" fill="#FEFDFD"/>
<path d="M29.9412 10.8903C29.9412 10.9878 29.94 11.0858 29.9412 11.1832C29.8435 11.2443 29.8823 11.4057 29.8811 11.5049C29.8735 12.1008 29.8823 12.6984 29.8823 13.2936C29.8823 14.5182 30.0165 16.2382 29.8235 17.397C29.6664 17.1674 29.8164 16.851 29.8258 16.608C29.8994 14.7788 29.7511 12.9226 29.8235 11.0928C29.8282 10.9801 29.7629 10.8574 29.9412 10.8903Z" fill="#F5C22F"/>
<path d="M29.8823 9.54193C29.8841 9.79553 29.8811 10.0503 29.8823 10.3039L29.8241 10.5381C29.7999 10.3068 29.8553 10.028 29.8241 9.80433C29.8135 9.73154 29.8535 9.69515 29.7352 9.71687C29.5158 9.75678 28.9833 10.4947 28.6492 10.4213C29.1504 10.2346 29.3687 9.62646 29.8829 9.54193H29.8823Z" fill="#F5C22F"/>
<path d="M26.1229 11.0664L25.4969 11.3418C25.2586 11.293 25.0145 11.2901 24.7721 11.3007C25.0356 11.2244 25.3316 11.215 25.6116 11.1686C25.701 11.1539 25.7611 11.0682 25.7711 11.0664C25.8546 11.05 26.0264 11.0618 26.1235 11.0664H26.1229Z" fill="#F5C22F"/>
<path d="M29.8823 13.2936C29.8823 12.6984 29.8741 12.1008 29.8812 11.5049C29.8823 11.4057 29.8435 11.2443 29.9412 11.1832C29.9482 11.7779 29.9482 12.3767 29.9423 12.9719C29.9412 13.0711 29.98 13.2326 29.8823 13.2936Z" fill="#FBB918"/>
<path d="M29.9411 24.8411V25.1934L27.0595 25.2204L27.0624 27.1276H29.9411V27.538H27.0624V29.5309C27.9802 29.5679 28.9057 29.4957 29.8223 29.4975C29.9294 29.4975 29.9376 29.5926 30 29.6478C29.9941 29.6542 29.9947 29.7887 30 29.8239C29.9441 29.9354 29.9188 29.9372 29.7999 29.9454C29.4528 29.9695 26.8336 30.0041 26.7065 29.916C26.607 29.8468 26.6535 28.5406 26.6512 28.3005C26.6512 28.2612 26.6512 28.2224 26.6512 28.1831C26.6512 28.1438 26.6512 28.105 26.6512 28.0657C26.6512 28.0264 26.6512 27.9876 26.6512 27.9483C26.65 27.6947 26.65 27.4393 26.6512 27.1863C26.6512 27.0889 26.6512 26.9909 26.6512 26.8934C26.6529 26.523 26.6476 26.1502 26.6512 25.7798C26.6512 25.7405 26.6512 25.7017 26.6512 25.6624C26.6529 25.5045 26.6065 24.8758 26.71 24.8417C27.7808 24.8799 28.8721 24.7901 29.9411 24.8417V24.8411Z" fill="#FEFDFD"/>
<path d="M22.5976 24.8411C22.6352 24.8464 22.6799 24.8341 22.7152 24.8411C22.8635 25.002 23.5448 25.2309 23.473 25.5033C23.3889 25.8191 22.9653 25.4176 22.7741 25.3401C22.2081 25.1106 20.9026 25.0425 20.6567 25.7475C20.3566 26.6087 20.9244 27.0237 21.7168 27.0689C21.7463 27.1141 21.7939 27.1118 21.8345 27.1276C22.3717 27.336 22.8035 27.2932 23.2983 27.6894C23.8231 28.1097 23.8837 28.6703 23.5854 29.2568C23.2712 29.8737 22.2858 29.9994 21.6586 30C21.6392 30 21.6192 30.0005 21.5998 30C21.4021 29.8327 21.1061 29.8585 20.8632 29.7681C20.5755 29.6601 20.0154 29.3566 20.0136 29.0038C20.1972 28.8388 20.319 29.0325 20.4249 29.0625C20.9002 29.707 23.1571 29.8743 23.3 28.9715C23.32 28.8435 23.3218 28.5465 23.3036 28.4179C23.2942 28.3527 23.2577 28.3322 23.2447 28.3005C22.9818 27.6448 21.9139 27.6184 21.3197 27.437C20.7696 27.2685 20.3142 27.1399 20.2036 26.4989C20.043 25.569 20.6755 24.8781 21.5709 24.7842C21.9157 24.7484 22.261 24.7953 22.5982 24.8423L22.5976 24.8411Z" fill="#FEFDFD"/>
<path d="M9.96663 24.9587L10.319 25.193C10.339 25.2112 10.359 25.2323 10.3779 25.2517C10.4973 25.3755 11.0115 25.9414 10.7003 26.0717C10.5673 26.1275 10.5761 26.0395 10.5355 26.0001C10.1178 25.5874 9.87426 25.2746 9.22533 25.1994C6.43603 24.8771 6.38132 29.5617 9.02588 29.5892C9.41948 29.5934 9.90132 29.4055 10.2014 29.1501C10.4514 28.9376 10.5202 28.6383 10.8468 28.5925C10.9892 29.193 10.1143 29.7448 9.62598 29.8657C8.10808 30.242 7.10026 29.2629 6.73432 27.8886C6.71961 27.8334 6.68372 27.6972 6.67549 27.6544V27.537C6.65195 25.6896 8.09043 24.2484 9.96545 24.9576L9.96663 24.9587Z" fill="#FEFDFD"/>
<path d="M17.2514 28.6509C17.2561 28.6691 17.2467 28.6914 17.2514 28.7096C17.3596 29.1147 17.6014 29.4628 17.6626 29.8819C17.4861 29.9442 17.3385 29.9248 17.2379 29.7487C16.8772 28.8165 16.4477 27.8995 16.0882 26.9685C15.9294 26.557 15.817 25.9823 15.6364 25.6025C15.5882 25.5015 15.5652 25.424 15.4299 25.4275C15.4864 25.2784 15.4893 25.0841 15.6064 24.9585C15.6305 24.9961 15.7323 25.0313 15.7947 25.1516C16.3577 26.2347 16.6348 27.5825 17.2514 28.6515V28.6509Z" fill="#FEFDFD"/>
<path d="M14.0202 28.1825C14.3297 27.4334 14.5486 26.6327 14.8574 25.8819C14.9845 25.5743 15.2163 24.9168 15.5187 24.783C15.6582 24.7214 15.5864 24.9286 15.6058 24.9585C15.4887 25.0841 15.4864 25.2785 15.4293 25.4276C15.4228 25.4446 15.4364 25.4698 15.4293 25.4863C15.2987 25.805 15.0851 26.1185 14.9492 26.4431C14.5797 27.3248 14.1514 28.9216 13.6978 29.6495C13.5072 29.9559 13.2607 30.0134 13.3731 29.5896C13.6408 29.6495 13.5519 29.4153 13.6219 29.2785C13.6596 29.2045 13.929 28.8863 13.9573 28.7842C13.9996 28.6298 13.9961 28.3545 14.0196 28.1825H14.0202Z" fill="#F5C22F"/>
<path d="M21.5992 29.9994C21.2103 29.9859 20.5219 29.8238 20.1942 29.6131C20.006 29.4916 19.8177 29.1781 20.0124 29.0032C20.0142 29.356 20.5743 29.6601 20.862 29.7675C21.105 29.8585 21.4009 29.8321 21.5986 29.9994H21.5992Z" fill="#FEFDFD"/>
<path d="M6.67673 27.6548C6.65379 27.5291 6.67673 27.5679 6.67673 27.5374V27.6548Z" fill="#273447"/>
<path d="M14.0202 28.1825C13.9967 28.3545 14.0008 28.6298 13.9579 28.7842C13.9296 28.8863 13.6602 29.2045 13.6225 29.2785C13.5531 29.4153 13.6413 29.6495 13.3737 29.5896C13.509 29.0789 13.8314 28.6386 14.0196 28.1831L14.0202 28.1825Z" fill="#FBB918"/>
<path d="M25.7699 13.8795C25.8093 13.8789 25.8481 13.8783 25.887 13.8795C25.8964 14.2798 25.8764 14.6831 25.8846 15.0841C25.9046 16.0444 26.0458 16.9174 25.6075 17.795C25.5816 17.8472 25.6081 17.9629 25.5898 17.9799C25.5604 18.0075 25.4128 17.9535 25.3669 17.991C25.3451 18.0086 25.3533 18.1061 25.3233 18.1507C25.1709 18.3755 24.975 18.4272 24.7703 18.5106L25.0639 18.2176C25.098 18.2018 25.1139 18.2053 25.1227 18.1589C26.2464 17.1469 25.5963 15.239 25.7687 13.88L25.7699 13.8795Z" fill="#F5C22F"/>
<path d="M21.0114 19.0383C21.0044 19.0383 20.9708 19.0994 20.9238 19.0953C20.762 19.0806 20.2372 18.8029 20.0983 18.6867C19.9289 18.544 19.54 17.9952 19.543 17.7832C19.5435 17.7363 19.6012 17.6993 19.6012 17.6905C19.783 17.8067 19.8089 18.048 19.9283 18.2141C20.2007 18.5933 20.6243 18.8047 21.0114 19.0383Z" fill="#F5C22F"/>
<path d="M27.2978 10.8903C27.3307 11.0764 27.2042 10.9942 27.093 11.0059C26.7377 11.0441 26.5947 11.0781 26.24 11.0658C26.5459 10.905 26.9566 10.932 27.2972 10.8897L27.2978 10.8903Z" fill="#F5C22F"/>
<path d="M22.2452 19.0383C22.0175 19.2021 21.6092 19.1751 21.3315 19.1593C21.222 19.1528 21.1114 19.1728 21.0703 19.0383C21.4774 19.0665 21.838 19.0718 22.2452 19.0383Z" fill="#F5C22F"/>
<path d="M28.0614 10.6561C28.0632 10.8862 27.8973 10.8046 27.7679 10.8322C27.7079 10.7048 27.9573 10.6578 28.0614 10.6561Z" fill="#F5C22F"/>
<path d="M28.4139 10.5387C28.4515 10.8674 28.2879 10.6631 28.1791 10.6561C28.2291 10.5504 28.345 10.5716 28.4139 10.5387Z" fill="#F5C22F"/>
<path d="M27.4149 10.8906H27.356C27.3954 10.8853 27.4119 10.8906 27.4149 10.8906Z" fill="#F5C22F"/>
<path d="M28.4727 10.5387C28.4803 10.5357 28.5056 10.4547 28.5904 10.4213L28.4727 10.5387Z" fill="#F5C22F"/>
<path d="M29.8529 10.6561C29.8911 10.6754 29.8911 10.6954 29.8529 10.7148V10.6561Z" fill="#F5C22F"/>
<path d="M16.4289 13.5279L16.4877 13.4692C16.4695 13.4897 16.4471 13.5073 16.4289 13.5279Z" fill="#F5C22F"/>
</g>
<defs>
<clipPath id="clip0_12_376">
<rect width="23.3333" height="23.3333" fill="white" transform="translate(6.66666 6.66663)"/>
</clipPath>
</defs>
</svg>
