<svg xmlns="http://www.w3.org/2000/svg" width="2482.6666667" height="2730.6666667" viewBox="0 0 1862 2048">
  <path class="rotate" fill="#fff" d="M1700 140c1 .6 1.9 2.1 1.9 3.3 0 2.7-4.5 11.3-8.2 15.9-1.5 1.8-3.9 5.1-5.4 7.3-4.1 6.1-8.8 12.9-9.5 13.5-.3.3-1.6 2.2-2.9 4.4-1.2 2.1-11.1 15.6-21.9 30.1s-21.8 29.4-24.6 33.1c-2.7 3.8-7.6 10.3-11 14.5-3.3 4.2-7.8 10.2-10 13.4s-10.1 13.9-17.5 23.8-17.9 24.1-23.4 31.6c-5.4 7.5-14.2 19.4-19.5 26.6-5.4 7.1-12.6 17-16.2 21.9-3.5 4.9-9.1 12.4-12.4 16.7s-8.5 11.3-11.5 15.5c-7.6 10.8-28.1 38.5-29 39.4-1 1-14.7 19.6-18.6 25.2-3.8 5.7-20.1 27.9-38.5 53-5.2 6.9-11.2 15.2-13.4 18.3-4.8 6.8-12 16.4-13.7 18.4-1.3 1.5-7.3 9.9-18.8 26.1-3.6 5.1-11.2 15.7-17 23.5-21.1 28.7-25.6 34.9-28.5 39.4-1.6 2.6-5.9 8.5-9.5 13.1-3.6 4.7-7.9 10.5-9.5 13s-4.3 6.1-6.1 8.1c-1.7 1.9-6.1 8-9.7 13.5-3.7 5.4-10.3 14.8-14.7 20.9-4.5 6-10.3 14.4-13.1 18.5s-6.7 9.4-8.6 11.8c-3.1 3.8-5.8 7.7-18.6 26.7-6.5 9.6-11.1 16.9-14 22.4-1.6 3.1-4 7-5.3 8.7-3 3.9-13.8 26.5-19.7 41.4-9.5 24-13.3 42.8-12.4 61.5.9 17.1 6.2 38 12.6 49.9 1.4 2.7 3.2 6 4 7.5 3.9 7.2 24 33.6 29.1 38.1.3.3 1.6 1.8 3 3.5 13.6 16.4 62 54.5 109 85.8 4 2.8 8.2 5.7 9.1 6.6 1 .9 3.6 2.7 5.9 4.1 4.2 2.6 24.7 15.8 26.5 17.2.6.4 2.6 2 4.5 3.6s4.2 3.2 5 3.5c.8.4 4.2 2.7 7.5 5.2s7.8 5.7 10 7.1c9.4 6.1 12 7.9 12.3 8.6.2.4 2.1 1.8 4.3 3 2.1 1.2 3.9 2.5 3.9 2.9s2.1 2.1 4.8 3.8c2.6 1.7 6.4 4.3 8.6 5.8 2.1 1.6 5.3 3.7 7.1 4.8 2.9 1.8 17.3 12.3 22.6 16.5 1 .8 3.5 2.6 5.4 4 2 1.4 6.7 5 10.4 8s8.8 7.1 11.5 9c2.6 1.9 13 10.1 23.2 18.3 10.2 8.1 18.9 14.7 19.3 14.7s2.7 2 5.1 4.4c2.5 2.4 7.2 6.2 10.6 8.4 3.3 2.3 12.2 9.5 19.7 16.2 7.6 6.6 15.5 13.1 17.7 14.5s4 2.9 4 3.4c0 .4.9 1.2 1.9 1.7 2.5 1.1 29.6 24.3 41 35 4.7 4.4 12.4 11.4 17.1 15.5 20.6 18.1 62.1 61.3 69 71.9.8 1.2 3.1 4.4 5.2 7 2 2.6 4.8 7.1 6.3 10.1s3.1 5.6 3.5 5.9c1.5 1 2.2 5.3 1.5 9.5-1 6.8-5.4 8.9-22.9 11-12.9 1.6-14.9 1.6-30 0-20.5-2.1-29.3-3.3-31.4-4.4-.9-.5-3.9-1.2-6.7-1.5-2.7-.4-9.2-1.8-14.3-3.2-5.2-1.3-10.7-2.4-12.3-2.4s-4.3-.9-6.1-2-4.9-2-6.8-2-5.5-.7-8-1.5-7.9-2.3-12-3.4c-11.6-2.9-28.5-8.4-34.5-11.1-2.2-1-6-2.3-8.5-3-9.9-2.6-14.7-4-19-5.9-10.9-4.6-25.8-10.1-29-10.7-1.9-.4-4.8-1.5-6.5-2.4-1.6-1-4.7-2.1-6.8-2.5-2-.4-4-1.1-4.3-1.6-.2-.5-3.6-1.8-7.4-2.9s-7.2-2.5-7.5-3c-.3-.6-1.4-1-2.3-1-1 0-3.5-.9-5.7-2s-4.5-2-5.3-2c-.7 0-3.9-1.2-7-2.6-8.1-3.7-8.3-3.7-23.2-10-7.4-3.1-15.3-6.2-17.5-6.8-3.8-1.1-6.2-2.1-16-6.6-7.4-3.4-13.9-6.1-23-9.6-4.9-1.9-10.3-4.1-12-4.9-7.8-3.5-15.4-6.5-16.7-6.5-.8 0-1.9-.5-2.5-1.1-.7-.7-3.6-2-6.5-3.1-9-3.2-15.1-5.5-20.3-7.6-2.7-1.1-8.1-3-12-4.2-3.8-1.3-8-2.9-9.2-3.6-1.1-.7-4.3-1.8-7-2.5-2.6-.6-5.7-1.7-6.8-2.4s-3.6-1.6-5.5-2-5.1-1.6-7.2-2.6c-2-1-5.3-2.3-7.5-2.8-2.1-.5-5.1-1.4-6.8-2-7.2-2.5-13.4-4.3-19.1-5.6-3.4-.8-7.7-2.1-9.5-2.9-1.9-.7-7.9-2.8-13.4-4.4-5.5-1.7-12.2-3.8-15-4.7-2.7-.9-7.5-2-10.6-2.5-3-.4-6.4-1.2-7.5-1.8s-6.4-1.8-11.9-2.6c-5.5-.9-11.3-1.9-13-2.2-4.8-1-19-3.2-32-5-15.5-2.2-66-2.5-81.5-.6-20.6 2.6-37.6 5.2-44 6.8-3.6.9-10.1 2.5-14.5 3.6s-10.5 2.9-13.5 4c-3 1-7.3 2.4-9.5 2.9s-6.2 2-9 3.4c-2.7 1.3-6.1 2.9-7.5 3.5-1.4.5-3.2 1.4-4 1.9s-3.5 1.8-6 2.9-7.6 3.4-11.3 5.1c-3.8 1.7-7.2 3.1-7.6 3.1-.5 0-1.4.6-2.1 1.4-.6.8-4.4 3.1-8.5 5-4 2-7.8 4.3-8.5 5.1s-1.7 1.5-2.2 1.5-4.8 2.6-9.6 5.8c-4.8 3.3-12.7 8.5-17.7 11.8-10.1 6.6-36.2 25.9-41.5 30.7-1.9 1.8-5.3 4.5-7.5 6.2-2.2 1.6-9.9 8.1-17 14.5-7.2 6.3-15.7 13.7-19 16.5-3.3 2.7-10.9 9.7-17 15.4-6 5.7-16.8 15.6-24 22-7.1 6.4-21.4 19.9-31.6 30.1-10.3 10.2-26.2 26-35.5 35.1-34.4 33.8-91.2 92.4-107.5 110.9-4.6 5.2-9.1 10.2-10 11-1.7 1.6-23.9 26-34.8 38.3-5.3 5.9-17.3 18.9-48.1 51.8-21.4 22.9-37.1 38.4-39.9 39.6-3.2 1.4-3.6 1.3-4.8-.3-1.8-2.5-.7-7.6 3.1-13.5 1.7-2.7 4.9-7.6 7.1-11s7.6-12.1 12.1-19.3c8-13.2 28.4-43.7 30.7-46.1.6-.7 2.6-3.4 4.2-6.1 3.9-6.2 4.9-7.7 11.8-17.6 5.2-7.5 26.9-39.5 30.7-45.3.8-1.3 3.5-5 6-8.2 7.5-9.8 9.9-13.2 21.1-29.7 3.3-4.9 8.1-11.7 10.7-15.1 6-8.1 29.7-41.9 40.3-57.5 3.4-5 8.5-12.4 16.9-24.1 5.3-7.4 11.1-15.9 13-18.9s4-6 4.6-6.5c.6-.6 3.7-4.8 6.8-9.5s9.3-13.7 13.7-20 8.3-12.2 8.6-13c.4-.8 4.4-7 9-13.7s8.3-12.6 8.3-13.1c0-.6.6-1.2 1.3-1.5.7-.2 3.6-4.2 6.5-8.8 7.3-11.7 7.4-11.8 10.5-16.2 1.5-2.2 2.7-4.6 2.7-5.4 0-.7.4-1.3.8-1.3.5 0 1.5-1.2 2.3-2.7s3.8-6.3 6.6-10.7c2.9-4.4 5.3-8.3 5.3-8.7s2.1-3.8 4.6-7.6c2.5-3.7 5.5-8.4 6.5-10.3 1.1-1.9 3.8-6.4 6-10 2.3-3.6 5.5-9 7.2-12 1.6-3 3.6-6.2 4.3-7.1.8-.8 1.4-1.9 1.4-2.3s1.7-3.8 3.9-7.4c5.9-10.2 15.7-29.3 18.6-36.4 1.5-3.5 3.7-8.6 5-11.3 4.3-9.3 6.3-14 8.4-20.5 1.1-3.6 3.5-10.8 5.2-16 1.6-5.2 3.6-10.9 4.4-12.5.7-1.7 1.8-5.8 2.5-9.2.6-3.4 1.7-7.5 2.5-9s1.5-5 1.5-7.6.8-8.3 1.7-12.5c2.4-10.8 2.5-48.2.1-56.2-.9-3-1.9-8.2-2.3-11.5-1.9-18.1-16.6-55-29.7-74.5-13.1-19.6-17.5-25.3-30.6-39.8-21.7-24.2-29.8-32-57.2-55.3-4.1-3.5-7.9-6.9-8.5-7.5-1.3-1.5-28-23.2-33-26.9-2.2-1.6-6.7-5.2-10-8s-12.3-9.8-20-15.6c-7.7-5.7-14.2-10.6-14.5-11-1.1-1.2-28.1-20.9-37.5-27.4-5.5-3.7-11.4-8-13.2-9.4-3.7-3-7.6-5.9-19.3-14.4-4.7-3.3-12.5-9.1-17.5-12.7-10.4-7.7-41.4-29.8-49.5-35.3-3-2-8.2-5.7-11.5-8.1-3.3-2.5-7.8-5.7-10-7.3-2.2-1.5-6.2-4.4-9-6.4-11.1-7.9-40-28.7-45.8-32.8-3.4-2.4-8.1-5.9-10.4-7.7-2.2-1.9-9.7-7.1-16.5-11.7-12.3-8.2-21.8-15.2-49.8-36.6-8-6.1-17.2-13-20.5-15.3s-9.8-7.3-14.5-11.2-10.7-8.9-13.4-11c-7.2-5.8-16.3-15.5-17.7-18.7-1.5-3.7.1-5.9 4.5-5.9 4.9 0 24.7 7.3 42 15.5 5 2.3 12.7 5.9 17.1 8 4.4 2 14.3 6.7 22 10.5 13.4 6.5 19.7 9.4 29.5 13.8 8.8 3.9 15.6 7.2 19 9.2 3.2 1.9 31.1 15.5 57.5 28 6.1 2.9 18.2 8.7 27 13s26.8 13 40 19.4 24.7 12.1 25.5 12.6c.8.6 4.4 2.4 8 4.1 20 9.5 25.2 11.9 25.6 11.9.6 0 18.3 8.8 21.4 10.6 1.4.8 10.4 5.1 20 9.5s19.8 9.1 22.5 10.4c10.6 5 21.3 9.8 28.5 12.6 4.1 1.7 9.3 3.9 11.5 4.9 8 3.9 21.6 10 22.1 10 .3 0 8 3.2 17.2 7.1s18.5 7.8 20.7 8.6c3.6 1.4 12.6 5.5 19.5 8.8 1.4.7 5.9 2.4 10 3.8s12.7 4.4 19 6.7 13.1 4.6 15 5c1.9.5 4.9 1.6 6.5 2.4 1.7.8 12.2 3.5 23.5 6 18.9 4.2 22.5 4.7 46.5 6.2 28.4 1.7 41.3 1.2 62.4-2.7 5.8-1 11.9-1.9 13.7-1.9s5.6-.8 8.6-1.9c2.9-1 7.1-2.3 9.3-2.9 9.7-2.5 36.6-12.7 40.7-15.4 1.4-1 3-1.8 3.5-1.8 1.2 0 31.6-15.1 33.3-16.6.9-.7 3.8-2.5 6.5-3.9 5.4-2.9 9.3-5.4 26.5-16.8 15.9-10.6 15.1-10 28.5-20.7 7.8-6.2 28.6-26 59.8-57 26.3-26.1 82.8-82.2 125.5-124.7s78.2-77.6 78.7-78.2c9.6-9.5 61.5-61.4 107.4-107.5 118-118.5 223-222.6 224.4-222.6.5 0 1.7.5 2.8 1M915.4 604.3c24.8 2.2 34.9 3.5 50 6.3 7.2 1.3 16.4 2.9 20.5 3.4 4.1.6 9.8 1.7 12.5 2.5 6.4 1.8 14.8 4.1 25.5 6.9 36.6 9.9 46.6 12.9 58.5 17.9 12.5 5.2 24.8 10 33 12.9 5.7 1.9 14.9 6 25.9 11.4 2.8 1.3 5.5 2.4 6.2 2.4.6 0 1.7.7 2.4 1.6 1.1 1.3.4 2.4-5.1 8-4 4-7.2 6.4-8.6 6.4-1.2 0-5.5-1.5-9.6-3.4-4-1.8-9.1-3.9-11.3-4.6-2.1-.7-7.3-2.9-11.4-4.8-4.1-2-10.2-4.5-13.5-5.8-3.3-1.2-9.1-3.4-13-4.9-3.8-1.5-9.2-3.3-12-4-2.7-.7-6.8-2-9-2.8-8.2-3.1-13.3-4.7-32-9.6-4.4-1.2-10-2.8-12.5-3.6s-7.9-1.9-12.1-2.4-8.5-1.3-9.5-1.9c-1-.5-3.9-1.3-6.4-1.6-9.1-1.3-28.7-4.7-35.5-6.1-16.2-3.3-45.3-5.5-72-5.5-34.1 0-74.2 2.9-84 6.1-4.1 1.4-21.5 4.9-24 4.9-1.1 0-4.9.8-8.5 1.9-7.4 2.2-15.9 4.6-24.1 6.7-3.1.7-6.9 2.1-8.5 2.9s-3.7 1.5-4.7 1.5-3.9 1.1-6.5 2.4-5.8 2.7-7.2 3c-4 1.1-36.4 16.9-45 21.9-5.2 2.9-11.3 7-12.8 8.4-.7.7-1.7 1.3-2.1 1.3-.7 0-9.8 6.9-13.6 10.3-1.1 1-5.2 4.4-9 7.5-3.9 3.1-8.8 7.6-10.9 9.9-2.1 2.4-4.3 4.3-4.8 4.3s-5.4-2.1-10.8-4.8c-6.7-3.1-10-5.3-10-6.4 0-.9 3-4.7 6.8-8.5 6.8-7 32.5-28.3 34.1-28.3.5 0 1.4-.7 2.1-1.5s3.5-2.7 6.3-4.1 8.3-4.7 12.3-7.4c4-2.6 8.7-5.1 10.3-5.5 1.7-.4 3.1-1.1 3.1-1.5 0-.5 3.5-2.5 7.8-4.5 4.2-2 8.9-4.3 10.4-5.1 1.4-.8 3.2-1.4 3.9-1.4s3.1-.9 5.3-1.9c5.4-2.5 20.9-8.1 22.5-8.1.7 0 2.5-.7 3.9-1.5 1.5-.8 5.2-2.1 8.2-2.9s7.5-2.1 10-2.9c10.1-3.3 16.9-5.1 24-6.3 4.1-.7 10.4-2 14-2.8 3.6-.9 8.7-1.6 11.4-1.6 2.6 0 7.4-.6 10.5-1.4 20.4-5.1 80.5-6.8 118.6-3.3m368.9 150.4c4.6 3.8 9.9 7.9 11.7 9.3 29 22.1 81.2 75 103.9 105.2 3.8 5.1 7.3 9.7 7.7 10.3 5.4 6.8 8.6 11.3 17.7 24.8 5.8 8.7 10.6 16.2 10.6 16.5 0 .4 1.4 2.7 3 5.2 1.7 2.5 4 6.3 5 8.5 1.1 2.2 4.5 8.7 7.5 14.4s5.5 11 5.5 11.6c0 .7.8 2.3 1.8 3.6 1.1 1.3 2.2 3.7 2.6 5.4.4 1.6 1.3 3.7 2 4.5.8.8 1.6 2.8 2 4.5.4 1.6 1.8 5.2 3.2 8.1 1.3 2.8 2.4 5.7 2.4 6.5s.9 3 1.9 5c1.1 2 2.3 5.4 2.7 7.5.3 2.2 1.1 4.4 1.5 5 1.7 2.1 5 12.9 7.4 24.3 1.4 6.2 2.7 11.7 3 12.1.5.8 2.7 19.1 4.5 37 1.4 14.8 1.1 42.7-.6 54.1-.9 5.7-2.2 14.3-2.8 19.1-.7 4.8-1.8 9.3-2.4 10s-1.4 4.2-1.8 7.8c-.7 6.6-1.5 8-4.6 8-1.9 0-7.8-3.8-11.3-7.2-1.3-1.3-3-2.9-3.9-3.6-1.3-1-1.5-2.4-1-7 .4-3.1 1.3-7.7 2.1-10.2 2.3-7.5 5.6-35.6 6-51 .3-10-.1-18.3-1.2-26.5-3.1-22.5-10-55.6-12.9-62-.8-1.7-2.6-6.6-4.1-11s-3.8-10.5-5.1-13.5c-1.2-3-3.4-8.4-4.8-12-2.1-5.6-6.6-14.8-9.6-20-.4-.8-2.5-4.9-4.5-9-2.1-4.1-4.6-9.1-5.6-11-1.9-3.5-2.3-4.1-6.5-11-5.8-9.5-21.9-33.3-26.6-39.2-2.9-3.6-6.2-7.9-7.3-9.4-11.9-16.2-56.8-65.1-63.7-69.3-1.5-.9-8-6.7-14.5-12.9-15.8-14.9-27.5-24.5-35-28.8-3.5-2-6.3-4.1-6.3-4.8 0-2.4 9.6-15.6 11.4-15.6.3 0 4.3 3 9 6.7m-734 41.8c4.1 3 7.7 6.3 8 7.3.4 1.1-.5 6.1-1.9 11.3-2.9 10.9-4.8 23.4-6.5 40.9-1.3 13.3 0 52.4 1.9 60.5.6 2.2 1.7 8.9 2.6 15 2.2 14.4 10.3 46.3 12.5 49 .5.5 1.1 2.8 1.5 5s1.6 5.7 2.6 7.7c1.1 2.1 1.9 4.4 1.9 5.2 0 2 6.5 18.1 8.5 20.8.8 1.3 1.5 3 1.5 3.9 0 2 14.5 32.5 15.9 33.3.5.3 1.2 1.8 1.6 3.3.3 1.6 2.3 5.5 4.3 8.8 4.6 7.4 5.2 8.4 9.8 16.5 3.3 5.8 11.1 18 17 26.5 1.2 1.6 4.1 6.1 6.6 10 4.2 6.4 7.4 10.8 12.7 17.5 1.1 1.4 4.7 6.1 8 10.5 3.2 4.4 8.9 11.6 12.6 16 3.6 4.4 8.5 10.2 10.7 13 6.4 7.8 51.5 52.3 58.8 58 3.6 2.8 9.1 7.1 12.2 9.5 3.2 2.5 5.8 5 5.8 5.6 0 2.4-7.5 16.7-10.8 20.6-.8 1-2.1 1.8-2.8 1.8-1.2 0-34.9-30-51.8-46-11.1-10.6-35.8-38.3-51.7-58-1.1-1.4-3.4-4.1-5-6s-3.1-4.3-3.5-5.3c-.3-.9-.9-1.7-1.2-1.7-.9 0-12.6-15.9-17.7-23.9-1.9-3-3.8-5.7-4.3-6-.4-.3-1.6-2.3-2.5-4.3-1-2-2.2-4-2.7-4.3s-2.6-3.4-4.5-6.8c-2-3.4-4.9-8.2-6.5-10.7s-4.1-6.8-5.5-9.6c-1.4-2.9-3.6-6.7-4.9-8.6-1.2-1.9-2.6-4.7-3-6.2s-1.7-4.2-2.8-6c-4.9-7.1-5.5-8.2-6.2-10.6-.4-1.4-2.7-6.6-5-11.5-8.5-17.9-13.1-29.1-14.2-34.5-.3-1.9-1.1-4.1-1.6-4.8-.6-.7-1.9-4-2.8-7.5-1-3.4-2.3-7.6-2.9-9.2-2.9-8.2-4.3-13.5-5.2-18.8-.5-3.2-1.5-7-2.3-8.5-.7-1.5-1.7-4.9-2-7.6-.4-2.6-1.6-7.4-2.6-10.5-.9-3.1-2.3-10.3-2.9-16.1-.7-5.8-1.9-13.7-2.7-17.7-1.3-5.9-1.5-12.4-1.1-35 .4-27.6 1.9-43.7 5.3-57.8 5.5-22.9 7.8-29.5 10.1-29.5.7 0 4.7 2.5 8.7 5.5m356.1 546c7.1 3.2 15.4 7.3 17.5 8.5 3.1 1.8 12.6 5.8 16.5 7 2.2.6 4.9 1.5 6 2 3 1.4 10.3 3.9 17.5 6 3.6 1.1 7.4 2.4 8.5 3 3.6 1.7 10.8 4.1 18.2 6 4 1 7.6 2.1 8.2 2.4.5.3 4 1.2 7.8 2 3.7.7 12 2.8 18.3 4.5 14.3 4 32.4 7.6 45.5 9.1 5.5.7 12.2 1.8 15 2.6 10.9 3.1 108.9 3.9 117.6 1 3.8-1.3 13.7-3.1 27.9-5.1 3.9-.5 10.6-2 19.5-4.1 3.3-.8 9.3-2.1 13.3-2.9 4-.7 7.9-1.8 8.5-2.3 1.3-1 13.9-5.7 19.4-7.1 1.7-.5 5.3-1.9 8-3.1 2.6-1.2 5.7-2.5 6.8-3 9.2-3.8 25.5-11.7 31.3-15.2 2.6-1.6 4.2-1.9 8.2-1.3 2.8.4 5.2 1.1 5.6 1.6.3.5 1.3.9 2.3.9 2.4 0 7.1 3.7 7.1 5.6 0 1.2-6.7 6-17.5 12.5-2.2 1.3-9.4 5-16 8.2s-13.1 6.4-14.5 7.1c-1.4.8-4.1 1.7-6 2.1s-4.4 1.3-5.5 1.9c-1.1.7-3.3 1.6-5 2-1.6.4-5.2 1.8-8.1 3.2-2.8 1.3-5.8 2.4-6.7 2.4s-4.6 1.1-8.3 2.5c-3.6 1.4-7.4 2.5-8.3 2.5s-3.3.9-5.4 2c-2 1.1-4.7 2-6 2-1.2 0-4.7.7-7.7 1.5s-10 2.2-15.5 3c-5.5.7-12.9 2.1-16.4 3s-7.2 1.4-8.3 1.1c-1.8-.4-24.3 1.8-29.3 2.9-1.1.3-8.7.9-16.9 1.5-16.7 1-66.8-.3-71.1-2-1.4-.6-8.1-1.5-14.8-2.1-6.7-.5-13.6-1.4-15.3-2-1.7-.5-8-1.6-14-2.4-6.1-.7-12.1-1.8-13.5-2.3-1.3-.5-4.9-1.3-7.9-1.6-6.8-.9-20.7-4.1-28-6.6-3-1-10.4-3.3-16.5-5-24.5-7.2-38.2-11.6-41.5-13.4-1.4-.7-4.3-1.9-6.5-2.6s-4.5-1.6-5.1-2.1-2.8-1.5-5-2.3c-2.1-.7-7.8-3.2-12.6-5.5-4.8-2.2-9-4.1-9.3-4.1-1.8 0-25.8-12.6-26.3-13.8-.3-.8.3-1.9 1.3-2.4.9-.6 2.5-1.8 3.4-2.7 2.1-2 11.7-8.4 15.6-10.4 2.5-1.2 3.4-1.3 5.5-.2 1.4.7 5.2 2.5 8.5 4m903.9 535.3c1 3.1 3.2 7.9 4.9 10.7 1.9 3.1 3 6.2 2.9 8.2-.1 2.5.3 3.3 1.6 3.3" color="#fff"/>
</svg>
