<?xml version="1.0" standalone="no"?>
<!DOCTYPE svg PUBLIC "-//W3C//DTD SVG 20010904//EN"
 "http://www.w3.org/TR/2001/REC-SVG-20010904/DTD/svg10.dtd">
<svg version="1.0" xmlns="http://www.w3.org/2000/svg"
 width="318.000000pt" height="497.000000pt" viewBox="0 0 318.000000 497.000000"
 preserveAspectRatio="xMidYMid meet">
<metadata>
Created by potrace 1.16, written by Peter Selinger 2001-2019
</metadata>
<g transform="translate(0.000000,497.000000) scale(0.100000,-0.100000)"
fill="#B5B5B5" stroke="none">
<path d="M2152 4327 c-6 -7 -47 -87 -91 -178 -181 -371 -366 -713 -514 -949
-245 -390 -399 -596 -640 -856 -48 -53 -56 -71 -35 -92 26 -26 51 -8 161 116
165 182 290 347 449 587 76 115 138 207 138 204 0 -4 -63 -156 -141 -340 -375
-888 -566 -1413 -689 -1894 -85 -330 -112 -483 -114 -635 -1 -109 2 -129 20
-160 57 -98 154 -66 271 90 126 170 378 685 662 1353 24 57 39 106 36 117 -7
21 -29 32 -49 24 -8 -3 -56 -103 -107 -222 -51 -119 -114 -263 -141 -319 -26
-57 -48 -105 -48 -107 0 -2 -43 -95 -96 -206 -100 -212 -240 -476 -300 -565
-36 -55 -126 -145 -144 -145 -37 0 -39 144 -4 352 56 334 189 792 373 1290
128 346 523 1298 761 1833 34 77 77 174 95 215 18 41 74 159 124 262 50 102
91 192 91 200 0 33 -47 50 -68 25z"/>
<path d="M1897 2938 c-21 -17 -68 -120 -101 -228 -15 -46 -41 -109 -58 -139
l-31 -54 21 -41 c11 -23 24 -53 27 -69 12 -59 66 -83 123 -53 26 13 119 108
154 157 l17 24 1 -40 c0 -22 9 -55 20 -72 27 -45 70 -45 133 0 71 51 147 183
147 255 0 41 -26 72 -59 72 -35 0 -44 -18 -29 -58 9 -24 7 -37 -14 -83 -27
-59 -69 -113 -101 -130 -19 -11 -20 -9 -15 56 8 96 67 212 149 293 62 61 70
85 38 105 -34 21 -68 -2 -154 -106 -47 -56 -121 -154 -165 -217 -89 -130 -156
-202 -169 -182 -4 7 -6 40 -4 73 3 47 19 101 68 224 36 89 65 172 65 183 0 12
-9 26 -19 32 -24 13 -24 13 -44 -2z"/>
</g>
</svg>
