<svg width="40" height="24" viewBox="0 0 40 24" fill="none" xmlns="http://www.w3.org/2000/svg">
<g clip-path="url(#clip0_2005_3837)">
<path d="M18.3194 5.02864C18.3519 4.99391 18.3806 4.8126 18.2111 4.82233C16.8993 4.89874 14.7824 5.89142 13.784 6.69654C10.5109 9.33765 11.3448 13.0555 15.1739 14.6296C17.4309 15.557 20.3604 15.6049 22.7465 15.1402C24.6216 14.7748 25.7918 13.2153 27.3646 12.4053C27.47 12.3511 27.5592 12.306 27.6853 12.3261C27.9198 12.5456 26.5712 13.8433 26.3596 14.0287C25.3162 14.9408 24.0192 15.9036 22.6116 16.194C18.6926 17.0033 12.3653 15.9821 11.19 11.7148C9.79121 6.6354 16.3691 3.9019 20.7903 4.19852C21.9612 4.27702 23.0651 4.68339 24.1652 5.01822L28.3851 1.97489C28.7486 1.6748 27.6293 1.37123 27.3543 1.27953C22.4221 -0.374465 17.8579 1.07808 13.8577 3.91926C13.7486 3.93802 13.7272 3.91926 13.7471 3.81506C13.8083 3.49968 15.4069 2.40767 15.7748 2.1819C18.9654 0.223642 23.231 -0.562719 26.931 0.428569C31.2335 1.58102 34.4719 5.74484 30.3752 9.19733C27.6831 11.4661 23.2288 11.9642 19.7824 11.4001C15.2358 10.6561 12.9758 7.48359 17.9994 5.10923C18.1005 5.06129 18.3084 5.04045 18.3194 5.02864Z" fill="#EEEEEE"/>
<path d="M29.6028 18.4385L29.7871 22.1209L31.5568 18.4385H34.0269L32.7365 23.7874H31.3724L32.1467 19.8966L30.1927 23.7874H28.6442L28.3861 19.6882L27.4644 23.7874H26.0635L27.2801 18.4385H29.6028Z" fill="#EEEEEE"/>
<path d="M7.11416 17.8835L6.74474 18.9943C5.16901 18.6164 2.81317 18.69 2.34126 20.5066C1.76612 22.7219 4.5253 23.0185 6.15486 22.4676C6.04425 22.7288 5.96167 23.6784 5.7847 23.8201C5.43594 24.098 3.26222 23.9931 2.7468 23.9076C0.62175 23.5555 -0.548432 22.0828 0.255284 20.0696C1.25661 17.5598 4.71554 17.3055 7.11416 17.8835Z" fill="#EEEEEE"/>
<path d="M40 18.5087L39.6977 19.475C38.4501 19.2555 36.6067 19.1652 35.9807 20.4538C35.2853 21.8855 36.4415 22.9164 37.9634 22.7503L38.2296 21.6347H37.3448L37.493 20.7316L39.8518 20.6622L39.2523 23.6395C37.2091 24.2654 33.6056 23.9188 33.8888 21.1915C34.1719 18.4643 37.6928 17.9148 40 18.5087Z" fill="#EEEEEE"/>
<path d="M11.2425 18.9248C11.2764 18.9568 11.1245 19.7911 11.0877 19.8209C10.997 19.8939 9.04741 19.7751 8.74288 19.8348L8.5143 20.8004H10.7264L10.5752 21.6305L8.36241 21.6646L8.07189 22.8844H10.4314L10.284 23.7875H6.37598L7.40827 18.9248H11.2425Z" fill="#EEEEEE"/>
<path d="M19.9432 18.9248C19.8938 19.111 19.8466 19.764 19.6755 19.8188C19.2884 19.9432 17.6633 19.7063 17.4318 19.8584C17.3278 19.9265 17.2342 20.6337 17.215 20.8004H19.3533C19.3858 20.9303 19.2648 21.5833 19.1963 21.625C19.0333 21.7243 17.1073 21.5541 17.0012 21.6409L16.6988 22.8844H19.0584C19.0849 23.0275 19.0046 23.7875 18.874 23.7875H15.0029L16.109 18.9248H19.9432Z" fill="#EEEEEE"/>
<path d="M15.5191 18.9248C15.57 18.9727 15.4011 19.7917 15.3643 19.8209C15.281 19.889 13.4479 19.7834 13.1596 19.8286L13.0114 20.8699H15.0022C15.0133 20.9963 14.8843 21.7361 14.8474 21.766C14.725 21.8639 12.8853 21.6569 12.7504 21.8396L12.3478 23.7875H10.7256L11.8316 18.9248H15.5184H15.5191Z" fill="#EEEEEE"/>
<path d="M24.5887 18.9248L24.3726 19.798L23.1213 19.8355L22.2291 23.7882H20.6807L21.4918 19.8286H20.2383C20.3452 19.5396 20.3083 19.1624 20.4964 18.9255H24.5887V18.9248Z" fill="#EEEEEE"/>
<path d="M25.6207 21.1477L25.4732 22.0508H23.9248C23.9963 21.7611 24.014 21.3839 24.1829 21.1477H25.6207Z" fill="#EEEEEE"/>
</g>
<defs>
<clipPath id="clip0_2005_3837">
<rect width="40" height="24" fill="white"/>
</clipPath>
</defs>
</svg>
