<svg width="30" height="30" viewBox="0 0 30 30" fill="none" xmlns="http://www.w3.org/2000/svg">
<path d="M29.5517 3.37329C29.5459 3.35062 29.4645 3.27128 29.4242 3.27328C29.2551 4.53011 29.8341 5.69893 29.7617 6.92375C29.4556 7.30847 28.9944 7.43715 28.5877 7.63651C28.4116 7.72252 28.3629 7.91521 28.147 7.80853C28.0016 8.06923 28.2623 8.20192 28.2642 8.46462L26.4965 9.66211C26.2121 9.67411 25.9271 9.61943 25.6619 9.76079C25.6196 9.78346 25.6312 9.92414 25.4845 9.94614C25.3513 9.96615 25.243 9.90947 25.1348 9.83813C24.8984 9.68211 24.2842 8.90734 24.0459 8.63797C23.4797 7.99722 23.2728 7.48316 22.795 6.87308C22.1039 5.99163 21.7939 6.16965 20.9126 6.64905C18.8662 7.76253 16.9633 9.11004 14.7709 9.92347C14.5082 10.0208 14.0644 10.0568 13.8402 10.1548C13.7249 10.2055 13.7249 10.3622 13.625 10.3975C13.4687 10.4542 13.2016 10.3802 13.0268 10.4082C12.9237 10.5055 13.7089 11.5604 13.828 11.6737C14.58 12.3958 15.3031 11.9204 16.0807 11.553C17.0971 11.0723 18.0707 10.4309 19.0052 9.79679C19.7981 9.25805 20.8255 8.23392 21.8368 8.20592C22.2845 8.19325 23.1351 8.68598 23.3696 9.07936C23.4029 9.13537 23.3465 9.22938 23.399 9.30939C23.5201 9.49342 23.9229 10.0001 24.076 10.1415C24.5141 10.5449 25.5735 10.9023 25.9027 11.307C25.9501 11.3657 25.9866 11.3803 25.9649 11.475C25.6119 11.2696 25.7919 11.7237 25.9821 11.8244C26.0795 11.8757 27.2721 12.2824 27.3439 12.2811C27.5136 12.2778 27.7121 12.0531 27.9491 12.1398L27.9786 11.8724L28.3315 11.8024L28.336 11.6084L28.7831 11.8137C28.6697 12.0244 28.8176 12.0951 28.8433 12.2478C29.0328 13.3873 28.6402 13.7293 28.5935 14.7101C28.58 14.9975 28.7017 15.5975 28.6575 15.7622C28.6421 15.8202 28.5416 15.8289 28.5044 15.8842C28.4647 15.9436 28.4769 16.0283 28.4205 16.0809C28.3686 16.1289 27.3445 16.763 27.2279 16.823C27.0025 16.9384 26.7917 16.901 26.6098 16.9797C26.5093 17.0231 26.0821 17.3971 26.0481 17.4071C25.6151 17.5391 25.4441 17.3818 25.0701 17.2104L25.0733 17.4451C24.8709 17.4678 24.7088 17.5331 24.5225 17.6071C23.0038 18.2132 20.6718 17.8825 18.9501 18.0072C17.8869 18.0839 16.8147 18.2612 15.7547 18.3412C11.9956 18.6259 8.57466 18.9146 4.86425 19.6467C4.0252 19.8121 3.25147 20.0701 2.3631 20.1428C2.15814 20.1595 1.48306 20.0821 1.39979 20.2088C1.47345 20.4188 0.647845 21.2103 0.570344 21.2089C0.391005 21.0562 0.44865 20.7895 0.392926 20.5949C0.201417 19.9228 0.0617882 19.2947 0.0227177 18.5799C-0.0163527 17.8652 -0.106663 16.6057 0.788114 16.6037C0.823982 16.3863 0.831028 16.197 0.938632 15.9929C1.14679 15.5989 1.89362 15.0748 0.927743 15.1375C0.828466 14.8288 0.982826 14.5187 1.12694 14.2567C1.69122 13.2299 2.70449 12.8612 3.60695 12.2378C5.62516 10.8429 7.59086 8.28459 10.0561 7.81653C10.2605 7.77786 10.5147 7.89188 10.6582 7.70785C10.263 6.99976 10.0798 6.37368 9.15944 6.48303C8.23904 6.59238 7.58381 6.93109 6.86261 7.47782C5.2857 8.67331 3.99445 10.2635 2.35157 11.397C1.8238 11.7617 1.27233 12.0037 0.666419 12.2091C0.505014 12.0284 1.46768 11.217 1.43053 11.0516C1.38186 10.9683 1.29027 10.9236 1.25824 10.8263C0.881627 9.66544 0.845759 8.43061 0.723424 7.24979C0.645283 6.4917 0.28212 5.03817 0.598526 4.37209C0.959128 3.61266 1.77384 4.12006 1.88273 4.00871C1.91219 3.80201 1.84045 3.50664 1.88145 3.31795C1.89105 3.27395 2.12804 3.25928 2.01019 3.14193C1.9756 3.10726 1.28258 3.50531 1.11477 3.10859C1.11797 2.9299 1.95638 2.52185 2.10754 2.40917C2.92354 1.80309 4.28524 0.377572 5.31516 0.346901C5.4407 0.342901 5.56432 0.415577 5.69306 0.41291C7.32313 0.377572 8.98778 0.251556 10.623 0.204883C11.6145 0.176879 12.7731 -0.0191461 13.6993 0.00152329C14.1701 0.0121913 14.6056 0.160877 15.1724 0.140208C17.0152 0.0721991 18.904 0.214884 20.7429 0.0041903L22.6349 0.00752406C22.6541 0.111538 22.5286 0.0688653 22.478 0.138874C22.4556 0.169545 22.5074 0.25689 22.4985 0.264891C22.462 0.298228 22.111 0.354236 22.0392 0.340901C21.9515 0.324232 21.9605 -0.0204796 21.5787 0.340234C21.5211 0.324232 21.5057 0.177546 21.4698 0.154876C21.3142 0.0581973 19.451 0.324232 19.1122 0.274225C19.1365 0.395574 19.2383 0.398241 19.3338 0.409576C19.7187 0.454248 20.3336 0.462916 20.7429 0.476251C21.197 0.491587 22.4107 0.555595 22.7816 0.471584C22.7976 0.46825 23.0147 0.255556 23.0192 0.239554C23.0685 0.0568638 22.5657 0.0675318 22.8604 0.0041903L24.4578 0.142875C25.4134 0.185547 26.451 0.042862 27.39 0.224219C27.6833 0.280893 28.4929 0.659608 28.7075 0.525591C28.744 0.502921 28.76 0.352902 28.817 0.339567C28.9316 0.486919 29.1968 0.420244 29.2346 0.44158C29.2762 0.464917 29.4639 0.767622 29.4844 0.843632C29.6516 1.46771 29.4991 2.3845 29.6798 3.04058L29.5517 4.34075C29.5087 4.06938 29.6106 3.61532 29.5517 3.37396V3.37329ZM20.0972 5.76827C21.286 5.12619 23.545 3.75067 24.8741 4.24207C25.1489 4.34342 25.455 4.60679 25.676 4.80614C25.8931 4.81015 25.7055 3.9187 25.7023 3.77401C25.6997 3.64933 25.7682 3.52865 25.7657 3.4333C25.7593 3.17327 25.6324 2.92924 25.7644 2.64587C25.7259 2.47851 25.3372 2.56119 25.1783 2.52518C24.1727 2.29849 23.8185 2.18981 22.7271 2.20447C19.7565 2.24381 16.8006 2.62386 13.8242 2.60986C11.6087 2.59919 9.46368 2.80522 7.23025 2.80789L3.48269 3.14126C3.47629 3.4293 3.6441 3.67933 3.70815 3.93937C3.95794 4.95216 3.99445 5.83094 4.12383 6.84041C4.15009 7.0471 4.32047 8.15124 4.47611 8.14391C4.82006 7.88588 5.14415 7.59251 5.46888 7.30914C7.18414 5.81361 9.73269 3.79935 12.1454 4.2234C13.3118 4.4281 13.6564 5.55424 14.2713 6.34434C14.5319 6.67905 14.9419 7.0131 15.2359 7.34047C15.4056 7.52916 15.6426 8.06257 15.9391 8.0719C16.0134 8.0739 16.6193 7.77386 16.7417 7.70919C17.8452 7.12911 18.9949 6.36301 20.096 5.76894L20.0972 5.76827Z" fill="#EEEEEE"/>
<path d="M22.058 22.4091V29.7433H20.3927V25.2761L18.247 27.8751L16.1654 25.2094V29.7433H14.436V22.4091H15.9412C16.6957 23.2158 17.2914 24.3 18.0248 25.1074C18.0843 25.1727 18.2214 25.3654 18.3091 25.3428L20.5528 22.4091H22.058Z" fill="#EEEEEE"/>
<path d="M29.8718 24.476C28.6632 23.8726 26.8576 23.2599 25.6778 24.2106C24.9637 24.7861 24.7901 25.8095 24.9573 26.691C25.2641 28.3132 26.8416 28.7952 28.2065 28.2092V27.209H27.1817V25.9089L27.2778 25.8089H29.9999V28.9759C27.6839 30.9182 23.3458 30.0861 23.08 26.5783C22.7623 22.3751 26.8404 21.2296 29.8718 22.9085V24.4754V24.476Z" fill="#EEEEEE"/>
<path d="M2.2663 22.4091V27.043C2.2663 27.3204 2.67879 27.9484 2.90424 28.1125C3.40703 28.4792 4.40813 28.4232 4.88915 28.0391C5.09091 27.8784 5.40539 27.2864 5.40539 27.043V22.4091H7.13474V27.243C7.13474 27.4284 6.88302 28.1518 6.78503 28.3458C5.77624 30.3408 2.13885 30.4061 0.996195 28.5659C0.860409 28.3472 0.537598 27.5417 0.537598 27.3097V22.4091H2.26695H2.2663Z" fill="#EEEEEE"/>
<path d="M13.2191 22.4091V23.7426H10.3048L10.2088 23.8426V25.1761L10.3048 25.2761H13.091V26.6096H10.3048L10.2088 26.7096V28.3098L10.3048 28.4098H13.2832V29.7433H8.54346V22.4091H13.2191Z" fill="#EEEEEE"/>
</svg>
