<svg version="1.0" xmlns="http://www.w3.org/2000/svg"
 width="400.000000pt" height="400.000000pt" viewBox="0 0 400.000000 400.000000"
 preserveAspectRatio="xMidYMid meet">

<g transform="translate(0.000000,400.000000) scale(0.100000,-0.100000)" stroke="none">
  <!-- Fill color changed to grayscale() return a lighter color. The original color is #290042 -->
<path fill="#777" d="M1806 3284 c-267 -41 -521 -172 -715 -367 -262 -265 -391 -589 -378
-957 5 -155 21 -243 65 -377 l28 -83 -58 0 c-31 0 -91 7 -132 16 -61 14 -78
15 -91 4 -21 -18 -19 -32 14 -98 91 -180 266 -334 453 -399 91 -31 235 -41
346 -23 498 80 906 509 1026 1080 25 117 41 344 30 425 -13 103 -25 99 -130
-42 -123 -165 -260 -300 -349 -344 -63 -31 -78 -34 -155 -34 -74 0 -92 4 -143
29 -216 110 -269 409 -115 647 156 242 494 377 592 237 24 -34 20 -61 -28
-156 -24 -48 -49 -111 -56 -141 -16 -68 -8 -187 13 -208 14 -15 19 -13 49 23
89 104 171 182 251 237 136 93 166 147 134 242 -21 60 -3 58 45 -5 63 -83 81
-90 237 -89 75 1 148 -2 164 -6 43 -11 33 7 -40 75 -268 251 -679 373 -1057
314z m278 -1360 c35 -35 12 -114 -39 -139 -42 -19 -47 -19 -79 6 -40 31 -32
91 18 131 26 22 80 23 100 2z"/>
<path fill="#d3121d" d="M2720 2803 c0 -4 14 -51 30 -103 96 -302 105 -657 25 -965 -114 -436
-382 -788 -750 -980 l-90 -47 106 6 c393 21 696 277 864 728 154 411 121 944
-78 1303 -31 55 -37 60 -70 63 -21 2 -37 0 -37 -5z"/>
<path fill="#d3121d" d="M2553 2750 c-38 -23 -48 -53 -39 -119 11 -81 8 -364 -4 -453 -83
-590 -448 -1073 -940 -1245 -47 -17 -109 -36 -138 -43 -47 -11 -51 -14 -35
-24 53 -36 184 -66 281 -66 193 1 399 101 586 285 210 207 339 450 408 768 30
138 33 482 5 622 -19 90 -73 274 -86 287 -3 4 -21 -1 -38 -12z"/>
<path fill="#d3121d" d="M2963 2759 c83 -185 134 -361 158 -545 18 -148 7 -421 -25 -565 -46
-217 -121 -402 -229 -567 -30 -44 -47 -77 -38 -72 33 18 181 178 234 251 98
139 184 346 218 529 21 107 15 348 -10 467 -41 197 -103 333 -191 424 -55 56
-129 105 -117 78z"/>
</g>
</svg>
