<svg width="40" height="24" viewBox="0 0 40 24" fill="none" xmlns="http://www.w3.org/2000/svg">
<g clip-path="url(#clip0_16_589)">
<path d="M18.3196 5.02864C18.352 4.99391 18.3808 4.8126 18.2112 4.82233C16.8994 4.89874 14.7825 5.89142 13.7841 6.69654C10.511 9.33765 11.3449 13.0555 15.174 14.6296C17.4311 15.557 20.3606 15.6049 22.7466 15.1402C24.6217 14.7748 25.7919 13.2153 27.3647 12.4053C27.4701 12.3511 27.5594 12.306 27.6854 12.3261C27.9199 12.5456 26.5713 13.8433 26.3597 14.0287C25.3163 14.9408 24.0193 15.9036 22.6117 16.194C18.6927 17.0033 12.3654 15.9821 11.1901 11.7148C9.79133 6.63541 16.3693 3.9019 20.7904 4.19852C21.9614 4.27702 23.0652 4.68339 24.1653 5.01822L28.3852 1.97489C28.7487 1.6748 27.6294 1.37123 27.3544 1.27953C22.4222 -0.374465 17.858 1.07808 13.8578 3.91926C13.7487 3.93802 13.7273 3.91926 13.7472 3.81506C13.8084 3.49968 15.407 2.40767 15.775 2.1819C18.9655 0.223642 23.2311 -0.562719 26.9311 0.428569C31.2336 1.58102 34.4721 5.74484 30.3753 9.19733C27.6832 11.4661 23.2289 11.9642 19.7825 11.4001C15.236 10.6561 12.976 7.48359 17.9996 5.10923C18.1006 5.06129 18.3085 5.04045 18.3196 5.02864Z" fill="#1B5AB4"/>
<path d="M29.6026 18.4385L29.7869 22.1209L31.5566 18.4385H34.0267L32.7363 23.7874H31.3722L32.1464 19.8966L30.1924 23.7874H28.644L28.3859 19.6882L27.4642 23.7874H26.0633L27.2799 18.4385H29.6026Z" fill="#1B5AB4"/>
<path d="M7.11403 17.8834L6.74462 18.9942C5.16889 18.6163 2.81304 18.69 2.34114 20.5065C1.766 22.7218 4.52518 23.0184 6.15473 22.4675C6.04413 22.7287 5.96155 23.6783 5.78458 23.8201C5.43581 24.0979 3.26209 23.993 2.74668 23.9076C0.621627 23.5554 -0.548554 22.0827 0.255162 20.0696C1.25649 17.5597 4.71542 17.3055 7.11403 17.8834Z" fill="#1B5AB4"/>
<path d="M40 18.5087L39.6977 19.4749C38.4501 19.2554 36.6067 19.1651 35.9807 20.4537C35.2854 21.8854 36.4415 22.9163 37.9634 22.7503L38.2296 21.6346H37.3448L37.493 20.7316L39.8518 20.6621L39.2523 23.6395C37.2091 24.2653 33.6057 23.9187 33.8888 21.1915C34.172 18.4642 37.6928 17.9147 40 18.5087Z" fill="#1B5AB4"/>
<path d="M11.2425 18.9248C11.2764 18.9568 11.1245 19.7911 11.0876 19.8209C10.9969 19.8939 9.04735 19.7751 8.74282 19.8348L8.51424 20.8004H10.7263L10.5751 21.6305L8.36235 21.6646L8.07183 22.8844H10.4314L10.2839 23.7875H6.37592L7.40821 18.9248H11.2425Z" fill="#1B5AB4"/>
<path d="M19.9432 18.9248C19.8938 19.111 19.8466 19.764 19.6756 19.8188C19.2885 19.9432 17.6633 19.7063 17.4318 19.8584C17.3278 19.9265 17.2342 20.6337 17.215 20.8004H19.3534C19.3858 20.9303 19.2649 21.5833 19.1963 21.625C19.0333 21.7243 17.1074 21.5541 17.0012 21.6409L16.6989 22.8844H19.0584C19.085 23.0275 19.0046 23.7875 18.8741 23.7875H15.003L16.109 18.9248H19.9432Z" fill="#1B5AB4"/>
<path d="M15.5191 18.9248C15.57 18.9727 15.4011 19.7917 15.3643 19.8209C15.2809 19.889 13.4479 19.7834 13.1596 19.8286L13.0114 20.8699H15.0022C15.0133 20.9963 14.8842 21.7361 14.8474 21.766C14.725 21.8639 12.8853 21.6569 12.7503 21.8396L12.3477 23.7875H10.7256L11.8316 18.9248H15.5184H15.5191Z" fill="#1B5AB4"/>
<path d="M24.5886 18.9248L24.3725 19.798L23.1212 19.8355L22.229 23.7882H20.6806L21.4917 19.8286H20.2382C20.3451 19.5396 20.3082 19.1624 20.4962 18.9255H24.5886V18.9248Z" fill="#1B5AB4"/>
<path d="M25.6208 21.1477L25.4734 22.0508H23.9249C23.9965 21.7611 24.0141 21.3839 24.183 21.1477H25.6208Z" fill="#1B5AB4"/>
</g>
<defs>
<clipPath id="clip0_16_589">
<rect width="40" height="24" fill="white"/>
</clipPath>
</defs>
</svg>
