<svg width="28" height="27" viewBox="0 0 28 27" fill="none" xmlns="http://www.w3.org/2000/svg">
<path d="M20.0257 3.38389C24.2442 4.60248 27.3857 8.12898 27.9271 12.4251C27.945 12.5673 27.9583 12.7122 27.9646 12.8554C27.9661 12.8886 27.9465 12.9247 28 12.915V13.2949L27.9881 13.3087L28 13.3294V14.2963L27.9881 14.3101L28 14.3308V14.6589C27.9458 14.6493 27.9668 14.6855 27.9647 14.7186C27.7093 18.7345 24.7011 22.4754 20.8768 23.8403C20.7616 23.8814 20.6133 23.9445 20.4985 23.9707C20.4168 23.9895 20.303 23.9835 20.2373 24C19.9784 23.9613 19.7899 23.8178 19.7479 23.5552C19.7227 22.8094 19.7577 22.0589 19.7617 21.3158C19.767 20.3307 19.8061 19.2414 19.02 18.5094C20.2428 18.3705 21.5501 18.0689 22.4959 17.2577C23.5824 16.3258 23.9806 14.9249 24.0312 13.5458C24.0755 12.3348 23.757 11.2064 22.904 10.3128C23.1982 9.51436 23.1749 8.63196 22.9237 7.82527C22.9028 7.75819 22.8279 7.51102 22.7969 7.46992C22.7316 7.38307 22.1144 7.47726 21.9871 7.50497C21.1942 7.6779 20.4445 8.13839 19.7676 8.55909C17.9799 8.08435 16.0545 8.07805 14.2678 8.55961C13.483 8.08841 12.278 7.33041 11.3188 7.44109C11.1907 7.45585 11.1475 7.67902 11.1115 7.79073C10.8514 8.59846 10.8173 9.49649 11.1168 10.2983C10.4288 11.072 10.0248 12.0093 9.98638 13.0437C9.92551 14.6789 10.3994 16.471 11.7987 17.4701C12.7986 18.184 13.7595 18.3014 14.9354 18.5099C14.9601 18.5143 14.9874 18.4933 14.9797 18.5349C14.5836 18.9066 14.3803 19.4307 14.306 19.9563C13.1468 20.4649 11.997 20.3206 11.2429 19.2743C10.7853 18.6395 10.3492 18.0015 9.4497 17.9558C9.31438 17.9489 8.89705 17.9705 8.91407 18.1681C8.93313 18.3892 9.40682 18.6269 9.57204 18.7512C9.82795 18.9439 10.0894 19.279 10.2546 19.5509C10.4884 19.9354 10.5948 20.3785 10.8953 20.7195C11.7401 21.6782 13.0924 21.6934 14.2741 21.4617C14.2788 21.9709 14.2682 22.4811 14.2734 22.9905C14.2766 23.3015 14.3782 23.678 14.0711 23.8962C13.9763 23.9637 13.8702 23.9707 13.7625 23.9999C13.5493 23.9439 13.3768 23.9241 13.1535 23.8448C9.19168 22.438 6.27601 18.6285 6.03458 14.4956C6.02523 14.3349 6.06713 14.1508 6 14.0028V13.174C6.05337 13.1837 6.03396 13.1476 6.03528 13.1143C6.14184 10.339 7.5767 7.57508 9.66934 5.74051C10.8262 4.72628 12.5306 3.74658 14.0449 3.38389C15.7916 2.96553 17.4586 2.8583 19.2351 3.21658C19.4738 3.26475 19.7073 3.33451 19.9449 3.38614C19.9728 3.39218 19.9995 3.41152 20.0257 3.38389Z" fill="white"/>
</svg>
