<svg width="119" height="116" viewBox="0 0 119 116" fill="none" xmlns="http://www.w3.org/2000/svg">
<g clip-path="url(#clip0_10_110)">
<path d="M76.2255 9.72057C76.2952 9.64466 77.0893 10.3225 77.1912 10.4123C81.8387 14.5156 81.4138 19.7703 77.8286 24.4018C76.6912 25.8718 74.9378 26.9538 75.5044 29.0771C75.5827 29.3711 76.0034 30.4381 76.3907 30.1269C77.8447 28.1982 80.0209 26.9442 82.2808 26.1669C83.4934 25.75 84.7746 25.549 85.9464 25.0123C89.2514 23.4962 91.359 19.9895 91.7721 16.4496C91.9502 16.5683 92.0693 16.9917 92.1423 17.2002C92.8065 19.1043 93.4622 21.5194 93.2594 23.539C92.8505 27.6049 87.8286 30.3515 85.1244 32.897L87.8597 32.6757C91.4502 32.8468 95.4334 33.4808 98.7041 31.6344C100.527 30.6048 101.338 28.7221 102.704 27.2371C103.298 32.3796 101.663 36.6657 96.4035 38.2085C94.7101 38.7045 92.9289 38.727 91.3396 39.5727C89.2225 40.6985 88.1322 42.8463 87.9123 45.1824C89.407 43.6824 91.3504 43.0227 93.3774 42.5641C96.0279 41.9643 98.3307 41.7227 101.012 42.3299C104.653 43.1542 107.8 45.1514 111.733 44.403C114.631 43.8513 116.948 41.8018 119.001 39.8421C118.856 42.1193 118.88 44.5494 118.282 46.7615C116.41 53.6883 109.502 51.6816 104.048 52.1263C101.136 52.3637 97.0162 52.9987 96.0644 56.2403C97.2769 56.5354 98.4036 56.7407 99.5626 57.2335C102.006 58.2727 103.715 60.3308 106.296 61.2064C109.773 62.3856 112.868 61.3443 115.785 59.3889C114.249 64.0941 111.115 67.9152 105.626 66.4665C104.633 66.2046 103.69 65.6732 102.707 65.423C101.347 65.0766 98.2856 64.819 96.999 65.2926C96.6631 65.4166 96.3809 65.5278 96.8037 65.7448C98.159 66.4376 99.1408 66.8642 100.297 67.9312C102.664 70.1186 103.683 73.2993 106.533 74.9628C108.878 76.3313 111.862 76.7001 114.5 76.0523C114.07 76.5515 113.472 76.9386 112.925 77.3138C109.111 79.9321 106.696 80.6206 102.383 78.4567L95.8455 74.4496C99.0679 78.2728 98.5882 83.9178 102.655 87.1572C104.424 88.5653 106.738 89.0154 108.817 89.7755C104.685 91.6829 99.6302 92.6558 96.3262 88.7631C95.1651 87.3946 94.5406 85.6092 93.3763 84.2257C91.4244 81.9046 88.5583 80.4004 85.4464 80.966L87.1622 82.0853C90.4919 85.5268 92.3247 89.5393 92.3118 94.376C92.2957 100.549 91.7882 104.394 97.6761 108.034C98.4476 108.511 99.3233 108.834 100.026 109.377C98.2749 109.231 96.5569 109.575 94.826 109.698C90.8256 109.981 88.0904 109.473 86.3188 105.571C85.2511 103.219 84.7306 100.488 83.6736 98.0591C82.519 95.4077 80.5907 91.7844 77.1912 92.0752C77.6816 93.9259 77.5357 95.7199 77.0539 97.5449C75.9121 101.873 74.5536 104.508 77.0657 108.916C77.9048 110.388 78.8287 110.838 79.7129 111.941C79.7999 112.049 79.9168 112.081 79.8718 112.262C76.7513 112.094 73.2477 111.747 71.3151 108.986C70.4856 107.801 69.727 105.843 69.5939 104.399C69.3289 101.525 70.7174 97.5834 67.6517 95.8139C67.6227 97.9629 66.6752 99.681 65.4422 101.357C63.3723 104.171 61.5255 105.418 61.3216 109.321C61.1993 111.657 61.929 113.937 62.9334 116.001C60.5769 114.339 57.421 112.407 56.7665 109.382C56.0142 105.905 58.0584 101.687 58.6454 98.2697C55.7996 101.109 51.8035 102.467 49.5093 105.883C47.7527 108.498 47.6808 111.126 47.551 114.185C45.1001 111.55 43.1439 107.958 44.1429 104.275C45.4445 99.4736 51.2981 98.3446 49.2142 92.2335L48.4631 90.6875C48.2796 92.8108 47.4179 94.5524 46.1002 96.1849C40.4762 103.156 30.4999 99.682 26.1433 109.414C25.7473 110.297 25.552 111.28 25.2022 112.108C25.156 112.218 25.1303 112.357 24.9833 112.37C24.5315 110.244 23.6065 108.192 23.3747 106.013C22.9047 101.59 25.2719 98.4836 28.7852 96.1326C31.2661 94.4733 36.1346 92.4729 35.7955 88.8304C35.7708 88.5685 35.539 87.3593 35.2386 87.3882C35.0465 87.4064 34.1237 87.973 33.7996 88.0981C31.0064 89.1768 29.2316 88.39 26.5489 88.7791C23.5132 89.2185 20.6792 90.8938 19.1039 93.5389C18.9859 93.7366 18.1113 95.6771 18.0126 95.6012C16.9192 91.8379 17.3344 87.3305 20.6406 84.8159C22.9627 83.0497 25.3835 83.8333 27.7336 82.6969C28.8184 82.1719 30.6351 80.7628 30.6609 79.4724C28.2894 80.1545 25.6958 79.7375 23.349 79.1217C21.0022 78.5059 18.8925 77.2294 16.2442 77.4443C14.2719 77.6046 11.982 78.693 10.4089 79.8551L8.2563 81.7143C9.20382 78.7037 10.4164 75.429 13.2622 73.7248C16.1358 72.0035 20.3669 71.9917 23.6398 71.78L24.6581 71.5683C21.7544 70.3442 19.5192 67.7494 16.6906 66.4216C13.7869 65.0584 11.4058 64.8596 8.27454 65.5513C7.56309 65.7085 6.83019 66.0741 6.11231 66.0677C8.19406 62.7727 10.8359 59.5738 15.169 59.9267C18.0759 60.164 20.4131 62.3717 23.3147 62.5995C25.4726 62.7684 27.3161 61.9409 28.7326 60.3532C25.8739 61.0556 22.5528 59.4231 20.1641 57.9402C15.7259 55.1862 13.7171 50.1527 8.79605 47.6895C5.7818 46.1809 3.5584 46.2868 0.370321 45.9372C0.208287 45.919 0.1042 45.9275 0.0022583 45.7714C2.14303 43.5765 5.38047 41.573 8.45052 41.0523C13.9564 40.119 15.918 43.1553 20.191 45.5223C22.9777 47.0662 27.3043 49.1574 30.1243 46.7326C29.0202 45.7052 28.0962 44.4885 27.3902 43.1564C25.5606 39.7074 25.2118 35.556 22.0291 32.9035C20.1276 31.319 17.8549 30.8903 15.4394 30.7107C20.7522 27.0158 26.169 28.4153 29.8293 33.4637C31.2178 35.3785 32.2115 38.4447 35.1667 38.0267L33.938 35.3528C32.3928 31.5874 34.0475 27.4349 32.3982 23.7496C31.6406 22.0572 30.2778 20.5251 28.768 19.4624C28.0973 18.9899 27.343 18.6617 26.697 18.1624C29.7337 18.1709 33.2974 18.1731 35.7526 20.1937C37.0252 21.2415 37.8258 22.6538 38.6155 24.0704L41.1684 30.0168C41.6394 25.4805 45.1301 19.3427 42.9411 14.955C42.2972 13.6656 41.1587 12.5612 40.4194 11.3264C44.4283 12.1069 48.3289 14.2889 48.9814 18.6563C49.5662 22.5714 47.258 26.1038 50.8689 29.2727C51.149 29.5186 53.3241 31.0175 53.4979 30.8711C52.266 29.076 52.0611 26.9666 52.2124 24.838C52.8111 16.4603 63.4409 11.7262 59.8751 2.14048C59.6004 1.40171 59.1841 0.717471 58.859 0.0032959L62.2799 1.98759C66.849 4.97579 67.789 7.89985 66.2846 13.223C65.2952 16.7233 62.9205 21.5237 64.4593 25.132C64.646 25.5693 65.8961 27.3889 66.3651 27.0885C66.4573 27.0297 67.2718 25.5233 67.4982 25.2207C69.772 22.1737 73.5385 21.2147 75.5623 17.8737C77.1032 15.3281 77.1151 12.5014 76.2276 9.72378L76.2255 9.72057ZM58.1915 31.7552C37.6015 33.0264 24.3287 54.9456 32.8929 73.7739C42.2178 94.2733 70.5833 97.6443 84.4151 79.7792C100.48 59.0286 84.134 30.1537 58.1915 31.7552Z" fill="white"/>
<path d="M51.2454 67.6136L48.2269 76.5172L43.7404 79.6829L48.3589 65.5459L35.9145 56.7192C34.2201 65.2497 37.1968 74.0625 43.6309 79.8443L40.9472 81.772L40.6821 81.7217C32.5655 74.0433 29.739 61.7045 34.0881 51.3212L58.8052 68.8954L56.0174 71.0123L51.2465 67.6146L51.2454 67.6136Z" fill="white"/>
<path d="M52.9602 51.5906L57.6763 37.1703C49.1497 38.1539 41.2004 43.616 37.7344 51.4837C37.5928 51.504 37.4919 51.4238 37.3782 51.3597C37.1313 51.2207 35.1333 49.8405 35.0474 49.7271C34.8575 49.478 35.1279 49.0023 35.2513 48.7414C37.3857 44.2094 42.2027 39.6613 46.5625 37.259C50.8076 34.9208 57.1623 33.2295 62.0244 33.7469C62.1832 33.764 62.2937 33.7544 62.3892 33.9105L52.9645 62.3321C52.7971 62.4518 52.488 62.1739 52.3464 62.0809C52.0588 61.8938 50.1122 60.5264 50.0843 60.3884L51.7809 54.9017C49.3321 54.907 46.8812 54.8953 44.4325 54.8963C44.1503 54.8963 43.8863 55.0182 43.5794 55.0171C42.1597 55.0118 41.2745 54.1586 40.1681 53.3857C39.3741 52.8308 38.5553 52.2481 37.8428 51.5895H52.9591L52.9602 51.5906Z" fill="white"/>
<path d="M69.5777 56.7181L71.2946 62.1653C74.0148 60.5071 76.4292 58.3389 79.1731 56.7181H84.694L72.5286 65.579L77.2426 79.7888C81.1937 76.2008 83.9836 71.3855 84.9644 66.1211C85.5482 62.9853 85.4688 59.8539 84.9086 56.7192H88.3392C90.4489 67.8798 85.0814 79.5675 75.368 85.345L66.0398 56.7192H69.5777V56.7181Z" fill="white"/>
<path d="M63.3603 71.9949L63.4269 72.2151L70.977 77.595L72.6864 82.8871L60.4126 74.2401L48.1367 83.0999C54.2275 86.3222 61.3473 87.1423 67.9702 85.0767C69.6153 84.5635 71.1605 83.7895 72.7347 83.1042L73.768 86.1501L73.7423 86.2859C63.8014 91.5866 50.8344 90.3454 42.2424 83.0475L66.953 65.3706L68.0239 68.6849L63.3614 71.9938L63.3603 71.9949Z" fill="white"/>
<path d="M83.1928 51.5906C79.6066 43.6299 71.829 38.1752 63.1447 37.1691L64.2768 33.9607C75.5193 35.4393 85.2735 43.8704 87.91 54.9016H57.3555L58.4275 51.5906H64.2167L61.4331 42.766C61.9042 41.2158 62.2991 39.1844 63.0352 37.755C63.0867 37.6545 63.0964 37.5016 63.2509 37.4909L67.9155 51.5906H83.1928Z" fill="white"/>
</g>
<defs>
<clipPath id="clip0_10_110">
<rect width="119" height="116" fill="white"/>
</clipPath>
</defs>
</svg>
