<svg width="55" height="44" viewBox="0 0 55 44" fill="none" xmlns="http://www.w3.org/2000/svg">
<path d="M32.7128 13.4899C33.6968 12.4857 34.7788 11.5773 35.9955 10.8685C39.2535 8.97049 42.5562 8.64793 45.7088 10.9765C48.3144 12.9012 48.6436 16.335 47.4859 19.2196C45.7453 23.5572 41.2905 26.1518 36.7525 26.3281C36.6739 26.3988 37.1046 26.7147 37.1448 26.7567C40.507 30.2502 43.3072 34.6031 40.7999 39.5179C39.1308 42.7895 35.9819 43.5008 32.5667 42.9584C29.2548 42.4324 26.4505 40.1466 24.6819 37.3608C24.6859 37.314 24.5936 37.3268 24.5879 37.3321C24.555 37.3634 24.3395 38.0505 24.2773 38.1883C22.7657 41.5352 18.6429 44.5749 14.9336 42.9797C8.88889 40.3801 9.62214 33.0984 13.2612 28.7114C13.5458 28.3684 14.0034 27.9794 14.2385 27.6353C14.265 27.5966 14.3017 27.59 14.2832 27.5208C11.5157 26.2722 9.06088 24.1969 7.63244 21.4688C6.50528 19.3163 6.13111 16.7072 7.61838 14.621C9.62356 11.8084 13.3004 12.0313 16.1 13.4203C17.1328 13.9327 18.1653 14.5694 19.1398 15.1865C18.9341 14.337 18.7096 13.4916 18.5645 12.6274C17.883 8.56986 18.1744 4.76597 21.6407 2.14598C23.996 0.365568 26.6734 -0.0359729 29.1862 1.71486C32.831 4.25456 33.0059 9.44189 32.713 13.4899H32.7128ZM25.1219 19.83C22.9711 20.0743 21.3019 22.8291 22.0563 24.8728C22.9489 27.291 26.2311 28.6601 28.5216 27.3904C32.4601 25.2071 29.0679 19.3818 25.122 19.83H25.1219Z" fill="#EEEEEE"/>
</svg>
