<svg version="1.0" xmlns="http://www.w3.org/2000/svg"
 width="976.000000pt" height="1084.000000pt" viewBox="0 0 976.000000 1084.000000"
 preserveAspectRatio="xMidYMid meet">

<g transform="translate(0.000000,1084.000000) scale(0.100000,-0.100000)"
fill="#FFF" stroke="none">
<path d="M4270 9303 c-723 -30 -1407 -255 -1980 -651 -700 -484 -1208 -1166
-1492 -2002 -56 -168 -128 -452 -158 -625 -53 -312 -53 -318 -57 -1330 -5
-1068 -8 -1024 68 -1129 169 -236 544 -178 639 100 19 55 20 90 20 903 1 465
5 918 10 1006 32 578 243 1191 578 1680 309 452 737 812 1232 1036 291 131
611 220 914 254 180 20 567 20 744 -1 77 -9 161 -13 192 -10 77 9 151 46 210
106 126 125 144 315 45 467 -66 100 -158 147 -329 168 -121 15 -462 36 -531
33 -22 -1 -69 -3 -105 -5z"/>
<path d="M6680 9105 c-199 -42 -375 -140 -511 -282 -94 -98 -129 -150 -184
-266 -179 -382 -95 -836 209 -1125 78 -74 209 -165 263 -183 l33 -11 -1 -361
0 -362 -133 -110 c-378 -313 -770 -648 -842 -720 -63 -62 -86 -94 -105 -140
l-24 -60 -6 -795 c-6 -749 -7 -803 -27 -928 -60 -367 -146 -637 -301 -939
-311 -604 -825 -1112 -1466 -1449 -121 -63 -366 -174 -386 -174 -6 0 -39 -13
-73 -30 -281 -133 -285 -536 -8 -672 61 -30 74 -33 162 -33 86 1 105 4 195 39
354 136 765 367 1079 604 386 292 759 695 996 1074 67 107 211 383 251 478 12
30 24 57 25 58 1 2 94 -55 206 -126 l203 -130 3 -125 3 -126 -89 -46 c-242
-124 -421 -348 -493 -615 -31 -113 -34 -368 -5 -470 54 -194 141 -345 273
-471 132 -125 276 -206 448 -250 136 -35 333 -33 469 4 524 144 834 662 705
1178 -67 268 -256 506 -497 626 -42 21 -79 39 -81 40 -2 1 -6 125 -10 275 l-6
273 -32 65 c-17 36 -47 79 -65 97 -30 28 -270 185 -669 437 -104 65 -139 92
-134 104 3 8 16 86 28 174 l22 158 410 0 410 0 307 -308 c169 -169 310 -310
313 -313 3 -3 -4 -44 -15 -90 -27 -113 -27 -300 0 -421 39 -177 127 -336 259
-469 122 -121 261 -205 428 -256 80 -24 103 -27 258 -27 149 -1 180 2 250 22
449 131 743 530 722 982 -7 143 -34 256 -92 378 -206 434 -687 651 -1148 517
-49 -14 -111 -37 -139 -51 l-51 -26 -216 216 -216 216 120 121 c66 66 172 169
236 229 l116 109 69 -29 c135 -56 321 -80 469 -61 389 52 725 347 826 727 32
119 37 312 11 434 -82 397 -381 694 -775 772 -34 6 -120 11 -192 11 -154 -1
-275 -29 -411 -93 -427 -204 -646 -695 -510 -1146 l23 -79 -321 -317 -321
-317 -402 -1 -403 0 1 353 0 352 61 50 c34 28 112 93 173 145 61 52 250 213
421 356 321 272 357 306 391 364 51 86 53 111 53 612 l0 468 88 44 c261 131
440 359 514 653 33 131 31 330 -6 467 -75 288 -282 536 -540 650 -143 63 -211
78 -376 82 -107 2 -175 -1 -220 -11z m332 -647 c72 -33 133 -96 171 -176 25
-53 30 -77 30 -141 1 -66 -4 -87 -30 -143 -37 -79 -98 -142 -173 -177 -46 -22
-69 -26 -140 -26 -73 0 -93 4 -142 28 -77 38 -134 96 -171 175 -28 58 -32 77
-31 147 1 92 22 151 80 222 94 115 268 154 406 91z m1592 -2638 c72 -27 135
-85 177 -162 32 -59 34 -68 34 -158 -1 -113 -20 -164 -90 -239 -67 -71 -147
-105 -250 -105 -122 0 -220 52 -284 152 -149 232 12 531 286 532 49 0 90 -7
127 -20z m11 -2634 c72 -33 135 -93 171 -163 26 -52 29 -68 29 -153 0 -81 -4
-103 -25 -145 -83 -171 -281 -247 -445 -172 -177 82 -259 285 -182 452 83 179
282 259 452 181z m-1919 -1551 c252 -75 331 -389 145 -576 -76 -76 -145 -102
-256 -97 -130 5 -223 64 -286 180 -32 59 -34 69 -34 158 0 110 18 160 81 230
93 103 225 142 350 105z"/>
<path d="M4185 7830 c-658 -59 -1229 -326 -1670 -781 -395 -408 -641 -915
-737 -1521 -23 -142 -23 -148 -23 -1248 l0 -1105 29 -63 c36 -79 113 -152 194
-183 89 -36 198 -32 285 9 86 40 157 112 189 189 l23 58 6 1085 c5 972 7 1095
22 1180 65 352 191 654 375 900 31 41 101 122 156 179 164 169 317 279 531
382 313 152 634 208 1032 180 151 -11 179 -11 235 3 129 33 231 136 264 266
55 219 -86 428 -312 459 -101 14 -483 21 -599 11z"/>
<path d="M4260 6359 c-252 -29 -466 -107 -680 -248 -112 -74 -308 -269 -387
-386 -101 -150 -179 -323 -223 -495 -49 -191 -50 -218 -50 -1448 l0 -1153 -37
-16 c-53 -22 -282 -79 -388 -97 -49 -9 -144 -20 -209 -26 -149 -14 -209 -36
-282 -102 -155 -142 -162 -374 -15 -531 94 -101 182 -124 390 -102 572 60
1038 220 1462 500 629 416 1033 1001 1174 1700 41 203 57 401 53 680 l-3 250
-29 59 c-112 229 -407 279 -591 100 -26 -24 -58 -70 -73 -102 -26 -56 -27 -64
-34 -322 -4 -149 -14 -312 -24 -375 -57 -393 -210 -718 -478 -1017 -43 -48
-100 -105 -127 -128 l-50 -42 3 954 c4 948 4 953 26 1033 12 44 43 123 68 174
39 78 62 110 133 181 95 96 176 147 299 188 73 24 92 26 342 31 261 6 266 6
322 33 73 34 137 98 174 174 26 54 29 68 29 165 0 100 -2 108 -34 172 -57 112
-151 178 -278 197 -81 11 -377 11 -483 -1z"/>
</g>
</svg>
