<svg width="60" height="60" viewBox="0 0 60 60" fill="none" xmlns="http://www.w3.org/2000/svg">
<path opacity="0.3" d="M15.9375 26.25H13.125C12.0895 26.25 11.25 27.0895 11.25 28.125V39.375C11.25 40.4105 12.0895 41.25 13.125 41.25H15.9375C16.973 41.25 17.8125 40.4105 17.8125 39.375V28.125C17.8125 27.0895 16.973 26.25 15.9375 26.25Z" fill="#EEEEEE"/>
<path opacity="0.5" d="M26.25 18.75H23.4375C22.402 18.75 21.5625 19.5895 21.5625 20.625V39.375C21.5625 40.4105 22.402 41.25 23.4375 41.25H26.25C27.2855 41.25 28.125 40.4105 28.125 39.375V20.625C28.125 19.5895 27.2855 18.75 26.25 18.75Z" fill="#EEEEEE"/>
<path opacity="0.7" d="M36.5625 23.4375H33.75C32.7145 23.4375 31.875 24.277 31.875 25.3125V39.375C31.875 40.4105 32.7145 41.25 33.75 41.25H36.5625C37.598 41.25 38.4375 40.4105 38.4375 39.375V25.3125C38.4375 24.277 37.598 23.4375 36.5625 23.4375Z" fill="#EEEEEE"/>
<path d="M46.875 20.625H44.0625C43.027 20.625 42.1875 21.4645 42.1875 22.5V39.375C42.1875 40.4105 43.027 41.25 44.0625 41.25H46.875C47.9105 41.25 48.75 40.4105 48.75 39.375V22.5C48.75 21.4645 47.9105 20.625 46.875 20.625Z" fill="#EEEEEE"/>
<path opacity="0.25" d="M9.375 43.125H50.625" stroke="#EEEEEE" stroke-width="2"/>
</svg>
