<svg width="75" height="75" viewBox="0 0 75 75" fill="none" xmlns="http://www.w3.org/2000/svg">
<path opacity="0.8" d="M45.7031 19.9219H29.2969C27.3552 19.9219 25.7812 21.4959 25.7812 23.4375V51.5625C25.7812 53.5041 27.3552 55.0781 29.2969 55.0781H45.7031C47.6448 55.0781 49.2188 53.5041 49.2188 51.5625V23.4375C49.2188 21.4959 47.6448 19.9219 45.7031 19.9219Z" fill="#B3B3B3"/>
<path d="M29.2969 28.125H45.7031" stroke="#EEEEEE" stroke-width="2"/>
<path d="M29.2969 33.9844H45.7031" stroke="#EEEEEE" stroke-width="2"/>
<path d="M16.4062 41.0156C18.3479 41.0156 19.9219 39.4416 19.9219 37.5C19.9219 35.5584 18.3479 33.9844 16.4062 33.9844C14.4646 33.9844 12.8906 35.5584 12.8906 37.5C12.8906 39.4416 14.4646 41.0156 16.4062 41.0156Z" fill="#EEEEEE"/>
<path d="M58.5938 41.0156C60.5354 41.0156 62.1094 39.4416 62.1094 37.5C62.1094 35.5584 60.5354 33.9844 58.5938 33.9844C56.6521 33.9844 55.0781 35.5584 55.0781 37.5C55.0781 39.4416 56.6521 41.0156 58.5938 41.0156Z" fill="#EEEEEE"/>
<path d="M19.9219 37.5H25.7812" stroke="#EEEEEE" stroke-width="2"/>
<path d="M49.2188 37.5H55.0781" stroke="#EEEEEE" stroke-width="2"/>
<path d="M31.6406 43.3594L36.3281 48.0469L43.3594 39.8438" stroke="#EEEEEE" stroke-width="3" stroke-linecap="round" stroke-linejoin="round"/>
</svg>
