<svg xmlns="http://www.w3.org/2000/svg" width="1254" height="1254" viewBox="0 0 1254 1254" preserveAspectRatio="xMidYMid meet">
  <g transform="translate(0 1254) scale(0.1 -0.1)" fill="#EEEEEE" stroke="none">
    <path d="M3418 11349 c-126 -18 -277 -84 -396 -171 -183 -134 -327 -361 -373
-227 -15 -74 -13 -8514 2 -8610 57 -368 347 -683 716 -777 64 -17 234 -18
2913 -18 l2845 0 80 23 c260 75 481 256 600 492 46 92 70 159 91 258 14 70 15
404 15 3533 -1 3120 -3 3461 -17 3510 -15 52 -38 76 -739 779 -398 399 -903
906 -1122 1126 -311 314 -409 406 -448 425 l-50 24 -2030 1 c-1116 1 -2056 -2
-2087 -7z m3964 -527 l33 -32 5 -768 c5 -712 7 -771 24 -817 65 -178 188 -299
361 -356 31 -10 206 -14 796 -19 739 -5 757 -5 779 -25 53 -47 50 70 50 -2151
l0 -2066 45 -60 c57 -76 105 -176 142 -293 l28 -90 3 -987 c3 -979 2 -987 -18
-1049 -22 -65 -40 -94 -138 -219 -64 -82 -146 -144 -239 -181 l-58 -24 -2895
-3 c-1977 -2 -2911 1 -2944 8 -88 19 -176 68 -246 139 -83 84 -131 149 -172
231 l-33 65 0 1015 0 1015 23 78 c30 106 83 214 143 293 l49 65 0 2957 c0
2504 2 2965 14 3010 27 100 98 193 188 246 99 58 -20 55 2090 53 l1938 -2 32
-33z"/>
    <path d="M3909 9524 c-92 -28 -159 -126 -159 -231 0 -85 53 -168 133 -208 l51
-25 1351 0 1351 0 55 28 c173 87 178 327 9 422 l-45 25 -1350 2 c-1147 1
-1357 0 -1396 -13z"/>
    <path d="M3905 8439 c-119 -35 -188 -200 -134 -319 26 -59 53 -87 112 -116
l47 -24 1810 0 c2000 0 1847 -5 1919 63 48 46 71 101 71 172 0 74 -24 129 -75
174 -75 66 70 61 -1912 60 -1010 0 -1821 -5 -1838 -10z"/>
    <path d="M3928 7386 c-138 -37 -214 -193 -158 -323 24 -58 57 -92 116 -122
l41 -21 1095 2 1095 3 41 28 c154 107 140 337 -25 419 l-48 23 -1055 2 c-827
1 -1065 -1 -1102 -11z"/>
    <path d="M3925 6245 c-182 -37 -362 -178 -444 -345 -54 -112 -75 -195 -75
-305 0 -180 63 -326 198 -460 135 -135 266 -189 456 -188 78 1 123 7 175 23
305 94 505 415 455 727 -31 197 -132 351 -300 461 -127 83 -315 118 -465 87z"/>
    <path d="M8374 6246 c-314 -72 -524 -332 -524 -650 0 -287 195 -549 468 -629
97 -28 263 -27 357 3 169 52 312 175 390 333 56 115 75 189 75 294 0 231 -112
434 -310 562 -125 81 -319 118 -456 87z"/>
    <path d="M3830 4680 c-217 -26 -401 -111 -532 -247 -62 -64 -113 -150 -146
-248 l-27 -80 -3 -952 c-3 -1051 -6 -1003 60 -1043 32 -19 49 -20 707 -20 653
0 675 1 706 20 61 38 60 18 65 674 l5 599 160 -179 c88 -99 292 -312 453 -475
258 -261 300 -300 355 -325 l62 -29 380 0 c463 0 438 -5 591 133 138 125 170
193 144 302 -11 45 -26 66 -112 158 -112 119 -128 131 -178 132 -45 0 -73 -19
-195 -130 -63 -57 -124 -103 -165 -123 -61 -30 -72 -32 -170 -32 -99 0 -109 2
-173 34 -192 96 -260 324 -155 522 22 43 58 81 160 170 l132 114 -285 5 c-315
6 -342 11 -430 80 -22 18 -167 175 -320 349 -171 193 -312 342 -361 383 -140
116 -300 182 -503 207 -99 12 -128 12 -225 1z"/>
    <path d="M8482 4680 c-176 -25 -366 -101 -483 -193 -30 -25 -165 -168 -299
-318 -405 -455 -427 -474 -555 -498 -37 -7 -194 -11 -405 -11 -376 1 -397 -2
-492 -57 -25 -16 -125 -97 -222 -181 -185 -163 -205 -188 -192 -255 9 -49 40
-92 79 -110 41 -20 120 -21 159 -4 14 7 86 65 159 130 120 107 139 119 202
138 84 26 137 21 223 -21 50 -24 86 -56 186 -163 68 -72 141 -157 161 -187 50
-76 84 -106 145 -125 66 -22 126 -15 202 22 64 31 207 170 401 388 l124 140 5
-595 c4 -444 8 -600 17 -616 7 -12 26 -34 44 -48 l31 -26 685 0 685 0 39 39
39 39 0 168 c3 1245 -1 1754 -16 1810 -51 200 -172 342 -379 445 -152 75 -376
112 -543 89z"/>
  </g>
</svg>
