<svg width="55" height="53" viewBox="0 0 55 53" fill="none" xmlns="http://www.w3.org/2000/svg">
<g clip-path="url(#clip0_2005_3785)">
<path d="M35.2302 4.44162C35.2624 4.40694 35.6294 4.71663 35.6766 4.75767C37.8245 6.63245 37.6281 9.03333 35.9712 11.1494C35.4454 11.8211 34.6351 12.3154 34.8969 13.2855C34.9331 13.4199 35.1275 13.9074 35.3066 13.7652C35.9786 12.884 36.9844 12.311 38.0289 11.9559C38.5893 11.7654 39.1815 11.6736 39.7231 11.4283C41.2506 10.7357 42.2247 9.13346 42.4156 7.51611C42.4979 7.57033 42.553 7.76377 42.5867 7.85902C42.8937 8.729 43.1967 9.83248 43.103 10.7552C42.914 12.6129 40.593 13.8678 39.3432 15.0309L40.6074 14.9298C42.2668 15.0079 44.1078 15.2976 45.6195 14.454C46.4621 13.9836 46.8371 13.1234 47.4684 12.4449C47.7427 14.7945 46.9868 16.7528 44.5562 17.4576C43.7735 17.6843 42.9502 17.6946 42.2157 18.0809C41.2372 18.5953 40.7333 19.5767 40.6317 20.644C41.3225 19.9587 42.2207 19.6573 43.1576 19.4477C44.3826 19.1737 45.4469 19.0633 46.6863 19.3407C48.3691 19.7173 49.8237 20.6298 51.6414 20.2879C52.9805 20.0358 54.0517 19.0994 55.0005 18.204C54.9335 19.2445 54.9444 20.3548 54.6682 21.3655C53.8028 24.5303 50.6103 23.6135 48.0893 23.8167C46.7433 23.9251 44.8393 24.2153 44.3994 25.6963C44.9599 25.8311 45.4806 25.9249 46.0162 26.1501C47.1455 26.6249 47.9356 27.5653 49.1284 27.9653C50.7353 28.5041 52.1656 28.0283 53.5141 27.1349C52.8039 29.2847 51.3557 31.0305 48.8189 30.3686C48.3596 30.249 47.9237 30.0062 47.4694 29.8919C46.841 29.7336 45.4261 29.6159 44.8314 29.8323C44.6762 29.8889 44.5457 29.9398 44.7411 30.0389C45.3675 30.3554 45.8213 30.5504 46.3555 31.0379C47.4496 32.0373 47.9207 33.4905 49.238 34.2506C50.3216 34.8758 51.7009 35.0444 52.92 34.7483C52.7216 34.9765 52.4448 35.1533 52.1924 35.3247C50.4293 36.521 49.3134 36.8356 47.3196 35.8469L44.2983 34.0161C45.7876 35.7629 45.5659 38.3421 47.4456 39.8222C48.2629 40.4655 49.3327 40.6712 50.2934 41.0185C48.3839 41.8899 46.0475 42.3344 44.5204 40.5559C43.9838 39.9306 43.6952 39.1149 43.1571 38.4828C42.2549 37.4223 40.9302 36.735 39.492 36.9934L40.285 37.5048C41.8239 39.0772 42.671 40.9105 42.6651 43.1204C42.6576 45.9409 42.423 47.6974 45.1444 49.3607C45.5009 49.5786 45.9056 49.7261 46.2305 49.9742C45.4211 49.9078 44.6271 50.0646 43.8271 50.1208C41.9782 50.2502 40.714 50.0182 39.8952 48.2353C39.4017 47.1606 39.1611 45.913 38.6726 44.8032C38.139 43.5918 37.2477 41.9363 35.6766 42.0692C35.9032 42.9147 35.8358 43.7344 35.6131 44.5682C35.0854 46.5456 34.4575 47.7497 35.6185 49.7637C36.0064 50.4363 36.4334 50.642 36.8421 51.1456C36.8822 51.195 36.9363 51.2096 36.9155 51.2926C35.4732 51.2155 33.8539 51.0572 32.9607 49.7955C32.5773 49.2542 32.2267 48.3598 32.1652 47.6999C32.0427 46.3868 32.6845 44.5858 31.2675 43.7774C31.2541 44.7592 30.8162 45.5442 30.2463 46.3102C29.2896 47.5958 28.4361 48.1654 28.3419 49.9488C28.2853 51.0162 28.6226 52.0576 29.0868 53.0009C27.9977 52.2413 26.5391 51.3586 26.2365 49.9767C25.8889 48.3881 26.8337 46.4606 27.105 44.8994C25.7897 46.1968 23.9427 46.8172 22.8824 48.3779C22.0705 49.5727 22.0373 50.7734 21.9773 52.1709C20.8445 50.9673 19.9404 49.326 20.4021 47.6432C21.0037 45.4495 23.7092 44.9336 22.746 42.1415L22.3988 41.4351C22.314 42.4053 21.9158 43.201 21.3067 43.9469C18.7074 47.1318 14.0965 45.5447 12.083 49.9913C11.8999 50.3948 11.8097 50.8437 11.648 51.2223C11.6267 51.2721 11.6148 51.3356 11.5468 51.342C11.338 50.3704 10.9105 49.433 10.8034 48.4375C10.5862 46.4166 11.6802 44.9971 13.304 43.923C14.4506 43.1648 16.7008 42.2509 16.5441 40.5866C16.5327 40.467 16.4255 39.9145 16.2867 39.9277C16.1979 39.936 15.7714 40.1949 15.6216 40.252C14.3306 40.7449 13.5103 40.3854 12.2704 40.5632C10.8674 40.764 9.55755 41.5294 8.82948 42.7379C8.77493 42.8283 8.37073 43.7149 8.3251 43.6802C7.81972 41.9607 8.01165 39.9013 9.53969 38.7524C10.6129 37.9454 11.7318 38.3035 12.818 37.7842C13.3194 37.5444 14.159 36.9006 14.1709 36.311C13.0749 36.6226 11.8761 36.4321 10.7915 36.1508C9.70683 35.8694 8.73178 35.2862 7.50776 35.3843C6.5962 35.4576 5.53783 35.9549 4.81076 36.4859L3.81587 37.3353C4.2538 35.9598 4.81423 34.4636 6.1295 33.6849C7.45767 32.8985 9.41322 32.8931 10.9259 32.7964L11.3966 32.6997C10.0545 32.1403 9.02142 30.9548 7.71408 30.3481C6.37202 29.7253 5.2715 29.6345 3.8243 29.9505C3.49548 30.0223 3.15674 30.1894 2.82495 30.1864C3.7871 28.6809 5.00815 27.2194 7.01082 27.3806C8.35436 27.4891 9.43455 28.4978 10.7756 28.6018C11.773 28.679 12.625 28.3009 13.2797 27.5755C11.9585 27.8964 10.4235 27.1505 9.31949 26.473C7.26822 25.2147 6.33979 22.9149 4.06533 21.7895C2.67219 21.1002 1.64457 21.1486 0.171089 20.9889C0.0962001 20.9806 0.0480924 20.9845 0.000976562 20.9131C0.990408 19.9103 2.48671 18.9949 3.90564 18.757C6.45039 18.3306 7.35699 19.7178 9.33189 20.7993C10.6199 21.5047 12.6196 22.4602 13.923 21.3523C13.4126 20.8829 12.9856 20.327 12.6593 19.7183C11.8137 18.1425 11.6525 16.2457 10.1815 15.0338C9.30263 14.3099 8.25219 14.114 7.1358 14.0319C9.59127 12.3437 12.0949 12.9832 13.7866 15.2898C14.4283 16.1646 14.8876 17.5656 16.2534 17.3746L15.6856 16.1529C14.9714 14.4325 15.7362 12.5352 14.9739 10.8514C14.6237 10.0782 13.9939 9.37819 13.2961 8.89264C12.9861 8.67674 12.6374 8.52677 12.3389 8.29865C13.7424 8.30256 15.3895 8.30354 16.5242 9.22676C17.1124 9.70547 17.4824 10.3508 17.8474 10.998L19.0273 13.7149C19.2451 11.6423 20.8584 8.83793 19.8466 6.83321C19.5491 6.24411 19.0229 5.73951 18.6812 5.17532C20.534 5.53191 22.3368 6.52889 22.6384 8.52433C22.9087 10.3131 21.8419 11.9271 23.5108 13.3749C23.6402 13.4873 24.6455 14.1721 24.7259 14.1052C24.1565 13.285 24.0618 12.3213 24.1317 11.3487C24.4084 7.52099 29.3214 5.35801 27.6733 0.978301C27.5464 0.640762 27.3539 0.328135 27.2037 0.00183105L28.7848 0.908449C30.8965 2.27375 31.331 3.60974 30.6357 6.04188C30.1784 7.64116 29.0808 9.83443 29.792 11.483C29.8783 11.6828 30.4561 12.5142 30.6729 12.377C30.7155 12.3501 31.0919 11.6618 31.1966 11.5236C32.2475 10.1314 33.9883 9.69326 34.9237 8.16676C35.6359 7.00369 35.6413 5.71215 35.2312 4.44308L35.2302 4.44162ZM26.8952 14.5092C17.3788 15.09 11.2443 25.1048 15.2025 33.7074C19.5124 43.0735 32.6225 44.6137 39.0153 36.4512C46.4403 26.9703 38.8854 13.7774 26.8952 14.5092Z" fill="white"/>
<path d="M23.6848 30.8924L22.2897 34.9605L20.2161 36.4069L22.3507 29.9477L16.5991 25.9148C15.816 29.8124 17.1918 33.8389 20.1655 36.4806L18.9252 37.3614L18.8027 37.3384C15.0512 33.8301 13.7449 28.1926 15.755 23.4485L27.1788 31.4781L25.8904 32.4453L23.6853 30.8929L23.6848 30.8924Z" fill="white"/>
<path d="M24.4773 23.5716L26.657 16.983C22.7162 17.4324 19.0421 19.928 17.4402 23.5227C17.3747 23.532 17.3281 23.4954 17.2755 23.4661C17.1615 23.4026 16.238 22.7719 16.1983 22.7202C16.1105 22.6063 16.2355 22.389 16.2925 22.2698C17.279 20.1991 19.5053 18.1211 21.5204 17.0235C23.4824 15.9552 26.4195 15.1824 28.6666 15.4189C28.74 15.4267 28.7911 15.4223 28.8353 15.4936L24.4793 28.4793C24.4019 28.534 24.2591 28.407 24.1936 28.3645C24.0607 28.2791 23.161 27.6543 23.1481 27.5913L23.9322 25.0844C22.8005 25.0868 21.6677 25.0815 20.5359 25.082C20.4055 25.082 20.2835 25.1376 20.1416 25.1372C19.4855 25.1347 19.0763 24.7449 18.565 24.3917C18.198 24.1382 17.8196 23.872 17.4903 23.5711H24.4768L24.4773 23.5716Z" fill="white"/>
<path d="M32.1576 25.9143L32.9512 28.4031C34.2084 27.6455 35.3243 26.6548 36.5925 25.9143H39.1442L33.5215 29.9628L35.7002 36.4552C37.5263 34.8159 38.8158 32.6158 39.2691 30.2105C39.5389 28.7778 39.5022 27.347 39.2433 25.9148H40.8289C41.804 31.014 39.3232 36.3541 34.8338 38.9938L30.5225 25.9148H32.1576V25.9143Z" fill="white"/>
<path d="M29.2843 32.8942L29.3151 32.9948L32.8046 35.4528L33.5947 37.8708L27.9219 33.92L22.2482 37.968C25.0633 39.4403 28.3539 39.8149 31.415 38.8712C32.1753 38.6367 32.8894 38.2831 33.617 37.97L34.0946 39.3616L34.0827 39.4237C29.4882 41.8456 23.495 41.2784 19.5239 37.9441L30.9448 29.8676L31.4398 31.3818L29.2848 32.8937L29.2843 32.8942Z" fill="white"/>
<path d="M38.4504 23.5716C36.7929 19.9343 33.1982 17.4421 29.1845 16.9825L29.7077 15.5165C34.9038 16.1921 39.4121 20.0443 40.6306 25.0844H26.5088L27.0042 23.5716H29.6799L28.3934 19.5397C28.6111 18.8314 28.7937 17.9033 29.1339 17.2502C29.1577 17.2042 29.1622 17.1344 29.2336 17.1295L31.3895 23.5716H38.4504Z" fill="white"/>
</g>
<defs>
<clipPath id="clip0_2005_3785">
<rect width="55" height="53" fill="white"/>
</clipPath>
</defs>
</svg>
