<svg xmlns="http://www.w3.org/2000/svg" viewBox="0 0 512 512" role="img" aria-labelledby="title desc">
  <title id="title">VexaAPI</title>
  <defs>
    <filter id="softShadow" x="-20%" y="-20%" width="140%" height="140%">
      <feDropShadow dx="0" dy="10" stdDeviation="9" flood-color="#000000" flood-opacity="0.28"/>
      <feDropShadow dx="0" dy="2" stdDeviation="2" flood-color="#000000" flood-opacity="0.18"/>
    </filter>
    <linearGradient id="whiteRelief" x1="0" y1="0" x2="0.9" y2="1">
      <stop offset="0" stop-color="#ffffff"/>
      <stop offset="0.55" stop-color="#f8f8f8"/>
      <stop offset="1" stop-color="#dcdcdc"/>
    </linearGradient>
    <linearGradient id="edgeHighlight" x1="0" y1="0" x2="0" y2="1">
      <stop offset="0" stop-color="#ffffff" stop-opacity="0.9"/>
      <stop offset="1" stop-color="#ffffff" stop-opacity="0"/>
    </linearGradient>
  </defs>

  <g filter="url(#softShadow)">
    <path
      d="M82 162V98c0-19.9 16.1-36 36-36h64c13.3 0 24 10.7 24 24s-10.7 24-24 24h-52v52c0 13.3-10.7 24-24 24s-24-10.7-24-24Z"
      fill="url(#whiteRelief)"
    />
    <path
      d="M330 62h64c19.9 0 36 16.1 36 36v64c0 13.3-10.7 24-24 24s-24-10.7-24-24v-52h-52c-13.3 0-24-10.7-24-24s10.7-24 24-24Z"
      fill="url(#whiteRelief)"
    />
    <path
      d="M82 350c0-13.3 10.7-24 24-24s24 10.7 24 24v52h52c13.3 0 24 10.7 24 24s-10.7 24-24 24h-64c-19.9 0-36-16.1-36-36v-64Z"
      fill="url(#whiteRelief)"
    />
    <path
      d="M406 326c13.3 0 24 10.7 24 24v64c0 19.9-16.1 36-36 36h-64c-13.3 0-24-10.7-24-24s10.7-24 24-24h52v-52c0-13.3 10.7-24 24-24Z"
      fill="url(#whiteRelief)"
    />

    <circle cx="256" cy="189" r="62" fill="url(#whiteRelief)"/>
    <path
      d="M148 371c0-68.5 48.4-112 108-112s108 43.5 108 112c0 12.7-10.3 23-23 23H171c-12.7 0-23-10.3-23-23Z"
      fill="url(#whiteRelief)"
    />
  </g>
</svg>
