<svg width="110" height="110" viewBox="0 0 110 110" fill="none" xmlns="http://www.w3.org/2000/svg">
<path d="M70.2614 0C73.2319 0.70858 76.079 2.6708 77.2385 5.58831C77.4595 6.14485 77.9933 7.77143 77.9933 8.26772V18.2538H98.7236C99.0852 18.2538 100.675 18.6956 101.146 18.839C105.887 20.2792 108.952 24.2581 110 28.9915V85.4685C109.526 90.0843 103.878 96.2062 99.1513 96.2062H84.4366C87.9237 92.1326 92.4354 88.6241 95.9339 84.6136C100.483 79.3954 99.6937 74.7853 99.7339 68.2273C108.737 59.6068 106.59 44.1442 95.3284 38.6162C86.2533 34.1581 76.0503 37.681 71.0105 46.1696C63.9158 33.6073 46.0986 33.6016 39.001 46.1696C35.9042 41.1521 30.83 37.2879 24.7943 36.7543C7.2899 35.2081 -2.06069 56.038 10.2776 68.2302C10.3264 74.8111 9.51418 79.3781 14.0775 84.6165C17.5733 88.627 22.0878 92.1354 25.5749 96.2091H10.8602C6.15623 96.2091 0.137762 89.8806 0.0373105 85.1242L0 29.9468C0 24.6253 5.96681 18.2538 11.2879 18.2538H32.0182V8.26772C32.0182 4.6445 36.2457 0.447524 39.7529 0H70.2586H70.2614ZM68.7575 9.23449H41.2597V18.2538H68.7575V9.23449Z" fill="white"/>
<path d="M68.6169 109.012C68.3557 108.768 68.1261 108.24 67.8448 107.956V90.2477C72.6809 84.5102 78.6506 79.6276 83.5755 73.9733L83.5899 63.4938C75.9642 60.3124 76.0302 49.1988 83.8998 46.3817C91.7695 43.5646 99.4756 52.3717 94.9265 59.7644C93.8101 61.5803 92.2574 62.6246 90.4923 63.7061L90.3603 76.888C85.5702 82.6168 79.8273 87.5626 74.6727 92.9874C74.1101 97.3364 75.0429 102.348 74.5607 106.62C74.2249 109.6 70.8986 111.135 68.6198 109.015L68.6169 109.012Z" fill="white"/>
<path d="M26.4704 63.3819L26.5478 74.2946L41.5869 89.3239L42.2843 90.5603L42.313 107.242C41.4433 110.897 36.438 110.865 35.554 107.167L35.3474 92.9873L20.6298 78.2792C20.0185 77.5448 19.6425 77.1317 19.5507 76.1363C19.1833 72.1918 19.875 67.7108 19.5277 63.706C16.3879 61.9245 13.9283 59.3255 13.7532 55.5215C13.4346 48.625 20.1534 43.8974 26.5823 46.5595C33.9899 49.6291 33.8808 60.4557 26.4704 63.3819Z" fill="white"/>
<path d="M58.4771 63.3791L58.4455 106.832C57.8399 110.911 52.4644 111.055 51.566 107.05L51.5832 63.4796C42.6316 59.908 44.6263 46.5568 54.2811 45.7651C64.619 44.9159 68.1663 59.6211 58.4771 63.3763V63.3791Z" fill="white"/>
</svg>
