<svg width="35" height="35" viewBox="0 0 35 35" fill="none" xmlns="http://www.w3.org/2000/svg">
<path d="M34.4769 3.93551C34.4702 3.90906 34.3753 3.81649 34.3282 3.81883C34.131 5.28513 34.8065 6.64875 34.722 8.07771C34.3648 8.52655 33.8268 8.67668 33.3523 8.90926C33.1468 9.00961 33.09 9.23442 32.8382 9.10995C32.6686 9.41411 32.9727 9.5689 32.975 9.87539L30.9125 11.2725C30.5808 11.2865 30.2482 11.2227 29.9389 11.3876C29.8896 11.414 29.903 11.5782 29.7319 11.6038C29.5765 11.6272 29.4502 11.5611 29.3239 11.4778C29.0482 11.2958 28.3316 10.3919 28.0536 10.0776C27.393 9.3301 27.1516 8.73035 26.5942 8.01859C25.7879 6.99024 25.4262 7.19793 24.398 7.75722C22.0106 9.05628 19.7905 10.6284 17.2327 11.5774C16.9263 11.691 16.4084 11.733 16.1469 11.8473C16.0124 11.9064 16.0124 12.0892 15.8958 12.1305C15.7135 12.1966 15.4019 12.1102 15.1979 12.1429C15.0776 12.2565 15.9937 13.4871 16.1327 13.6193C17.01 14.4618 17.8536 13.9071 18.7608 13.4785C19.9467 12.9177 21.0825 12.1694 22.1727 11.4296C23.0978 10.8011 24.2964 9.60624 25.4763 9.57357C25.9986 9.55879 26.991 10.1336 27.2645 10.5926C27.3033 10.6579 27.2376 10.7676 27.2989 10.861C27.4401 11.0757 27.9101 11.6668 28.0887 11.8318C28.5998 12.3024 29.8358 12.7193 30.2199 13.1915C30.2751 13.2599 30.3177 13.2771 30.2923 13.3875C29.8806 13.1479 30.0906 13.6777 30.3125 13.7951C30.4261 13.855 31.8175 14.3295 31.9012 14.328C32.0992 14.3241 32.3308 14.0619 32.6073 14.1631L32.6417 13.8511L33.0534 13.7694L33.0586 13.5431L33.5802 13.7827C33.448 14.0285 33.6206 14.1109 33.6505 14.2891C33.8717 15.6185 33.4136 16.0175 33.359 17.1618C33.3433 17.497 33.4853 18.1971 33.4338 18.3893C33.4158 18.4569 33.2985 18.4671 33.2552 18.5316C33.2088 18.6008 33.223 18.6996 33.1573 18.7611C33.0968 18.8171 31.9019 19.5569 31.7659 19.6269C31.5029 19.7614 31.257 19.7179 31.0448 19.8097C30.9275 19.8602 30.4291 20.2966 30.3895 20.3083C29.8843 20.4623 29.6848 20.2787 29.2484 20.0788L29.2522 20.3526C29.016 20.3791 28.827 20.4553 28.6095 20.5417C26.8378 21.2487 24.1171 20.8629 22.1085 21.0084C20.868 21.0978 19.6171 21.3048 18.3804 21.3981C13.9948 21.7303 10.0038 22.0671 5.67496 22.9212C4.69606 23.1141 3.79339 23.4151 2.75695 23.4999C2.51783 23.5194 1.73023 23.4291 1.63309 23.5769C1.71902 23.822 0.755819 24.7453 0.665402 24.7438C0.456172 24.5656 0.523425 24.2545 0.458414 24.0273C0.234986 23.2432 0.0720862 22.5105 0.026504 21.6766C-0.0190782 20.8427 -0.12444 19.3733 0.919467 19.3709C0.961313 19.1174 0.969532 18.8964 1.09507 18.6584C1.33793 18.1987 2.20922 17.5873 1.08237 17.6604C0.966543 17.3002 1.14663 16.9385 1.31476 16.6328C1.97309 15.4349 3.15524 15.0047 4.20811 14.2774C6.56269 12.6501 8.856 9.66536 11.7322 9.11929C11.9705 9.07417 12.2672 9.20719 12.4346 8.9925C11.9735 8.16639 11.7598 7.43596 10.686 7.56353C9.61222 7.69111 8.84778 8.08627 8.00638 8.72413C6.16665 10.1189 4.6602 11.9741 2.7435 13.2965C2.12777 13.722 1.48439 14.0044 0.777489 14.244C0.589183 14.0331 1.7123 13.0865 1.66896 12.8936C1.61217 12.7963 1.50531 12.7442 1.46795 12.6306C1.02856 11.2763 0.986719 9.83572 0.843994 8.45809C0.75283 7.57365 0.32914 5.87787 0.698281 5.10077C1.11898 4.21477 2.06948 4.80673 2.19652 4.67683C2.23089 4.43568 2.1472 4.09108 2.19502 3.87094C2.20623 3.8196 2.48271 3.80249 2.34522 3.66558C2.30487 3.62513 1.49634 4.08953 1.30056 3.62669C1.3043 3.41822 2.28245 2.94216 2.4588 2.8107C3.41079 2.1036 4.99945 0.440501 6.20102 0.404718C6.34748 0.400051 6.4917 0.48484 6.6419 0.481728C8.54365 0.440501 10.4857 0.293482 12.3935 0.23903C13.5502 0.206359 14.902 -0.0223371 15.9825 0.00177717C16.5317 0.0142232 17.0399 0.18769 17.7012 0.163576C19.851 0.0842323 22.0547 0.250698 24.2 0.00488868L26.4074 0.00877807C26.4298 0.130127 26.2833 0.0803429 26.2243 0.16202C26.1982 0.197803 26.2587 0.299705 26.2482 0.309039C26.2056 0.347933 25.7961 0.413275 25.7124 0.397717C25.6101 0.37827 25.6205 -0.0238928 25.1752 0.396939C25.1079 0.37827 25.09 0.207137 25.0481 0.180689C24.8666 0.0678968 22.6928 0.37827 22.2975 0.319929C22.3259 0.461503 22.4447 0.464615 22.5561 0.477839C23.0052 0.529957 23.7225 0.540069 24.2 0.555627C24.7298 0.573518 26.1458 0.648194 26.5785 0.550181C26.5972 0.546292 26.8505 0.298149 26.8557 0.27948C26.9133 0.0663411 26.3267 0.0787871 26.6704 0.00488868L28.5341 0.166687C29.649 0.216472 30.8595 0.0500056 31.955 0.261589C32.2972 0.327708 33.2417 0.769543 33.4921 0.61319C33.5346 0.586742 33.5533 0.411719 33.6198 0.396162C33.7536 0.568073 34.063 0.490285 34.107 0.515177C34.1556 0.542403 34.3746 0.895559 34.3985 0.984238C34.5935 1.71233 34.4157 2.78191 34.6264 3.54735L34.4769 5.06421C34.4269 4.74761 34.5457 4.21788 34.4769 3.93629V3.93551ZM23.4468 6.72965C24.8337 5.98055 27.4692 4.37579 29.0198 4.94908C29.3403 5.06732 29.6975 5.37458 29.9553 5.60717C30.2086 5.61184 29.9897 4.57181 29.986 4.40301C29.983 4.25755 30.0629 4.11675 30.0599 4.00552C30.0525 3.70214 29.9045 3.41744 30.0584 3.08684C30.0136 2.8916 29.56 2.98805 29.3747 2.94605C28.2015 2.68157 27.7883 2.55477 26.515 2.57189C23.0492 2.61778 19.6007 3.06117 16.1282 3.04484C13.5435 3.03239 11.041 3.27276 8.4353 3.27587L4.06314 3.66481C4.05567 4.00085 4.25145 4.29255 4.32618 4.59593C4.6176 5.77752 4.6602 6.80277 4.81114 7.98048C4.84178 8.22162 5.04055 9.50979 5.22213 9.50123C5.6234 9.20019 6.00151 8.85792 6.38036 8.52732C8.3815 6.78254 11.3548 4.43257 14.1697 4.9273C15.5304 5.16611 15.9324 6.47995 16.6498 7.40173C16.9539 7.79223 17.4322 8.18195 17.7752 8.56388C17.9732 8.78402 18.2497 9.40633 18.5956 9.41722C18.6823 9.41955 19.3892 9.06951 19.5319 8.99405C20.8195 8.3173 22.1608 7.42352 23.4453 6.73043L23.4468 6.72965Z" fill="#245069"/>
<path d="M25.7341 26.1439V34.7006H23.7913V29.4888L21.288 32.521L18.8594 29.411V34.7006H16.8419V26.1439H18.5979C19.4782 27.0852 20.1731 28.35 21.0287 29.292C21.0982 29.3682 21.2581 29.593 21.3605 29.5666L23.9781 26.1439H25.7341Z" fill="#245069"/>
<path d="M34.8505 28.5554C33.4405 27.8514 31.334 27.1365 29.9576 28.2458C29.1244 28.9171 28.9219 30.1111 29.1169 31.1395C29.4748 33.032 31.3153 33.5944 32.9077 32.9107V31.7439H31.7121V30.227L31.8242 30.1103H35V33.8053C32.2979 36.0712 27.2368 35.1004 26.9267 31.008C26.5561 26.1043 31.3138 24.7679 34.8505 26.7266V28.5546V28.5554Z" fill="#245069"/>
<path d="M2.64411 26.1439V31.5502C2.64411 31.8738 3.12534 32.6065 3.38837 32.7979C3.97496 33.2257 5.14291 33.1604 5.7041 32.7123C5.93948 32.5249 6.30638 31.8341 6.30638 31.5502V26.1439H8.32395V31.7835C8.32395 31.9998 8.03028 32.8438 7.91596 33.0702C6.73904 35.3976 2.49541 35.4738 1.16232 33.3269C1.0039 33.0717 0.627289 32.132 0.627289 31.8613V26.1439H2.64486H2.64411Z" fill="#245069"/>
<path d="M15.4221 26.1439V27.6997H12.0221L11.91 27.8164V29.3721L12.0221 29.4888H15.2726V31.0446H12.0221L11.91 31.1612V33.0281L12.0221 33.1448H15.4968V34.7006H9.96716V26.1439H15.4221Z" fill="#245069"/>
</svg>
