<svg width="100%" viewBox="0 0 680 240" role="img" xmlns="http://www.w3.org/2000/svg">
  <rect width="680" height="240" fill="#090909"/>

  <rect x="115" y="65" width="110" height="110" rx="10" fill="#101010"/>
  <rect x="146" y="77" width="48" height="38" rx="6" fill="#303030"/>
  <rect x="152" y="84" width="36" height="5" rx="2" fill="#101010"/>
  <rect x="152" y="93" width="30" height="4" rx="2" fill="#101010"/>
  <rect x="152" y="102" width="36" height="4" rx="2" fill="#101010"/>
  <rect x="130" y="126" width="70" height="6" rx="3" fill="#303030"/>
  <rect x="130" y="139" width="50" height="5" rx="2" fill="#303030"/>
  <rect x="130" y="152" width="60" height="5" rx="2" fill="#303030"/>
  <text x="170" y="51" text-anchor="middle" font-family="sans-serif" font-size="12" font-weight="800" fill="#E0E0E0" letter-spacing="1">SOAP</text>

  <rect x="285" y="65" width="110" height="110" rx="10" fill="#101010"/>
  <circle cx="340" cy="98" r="16" fill="#303030"/>
  <circle cx="340" cy="98" r="9" fill="#101010"/>
  <rect x="300" y="126" width="70" height="6" rx="3" fill="#303030"/>
  <rect x="300" y="139" width="50" height="5" rx="2" fill="#303030"/>
  <rect x="300" y="152" width="60" height="5" rx="2" fill="#303030"/>
  <text x="340" y="51" text-anchor="middle" font-family="sans-serif" font-size="12" font-weight="800" fill="#E0E0E0" letter-spacing="1">REST</text>

  <rect x="455" y="65" width="110" height="110" rx="10" fill="#101010"/>
  <polygon points="510,75 526,84 526,102 510,111 494,102 494,84" fill="#303030"/>
  <polygon points="510,82 521,88 521,98 510,104 499,98 499,88" fill="#101010"/>
  <rect x="470" y="126" width="70" height="6" rx="3" fill="#303030"/>
  <rect x="470" y="139" width="8" height="5" rx="2" fill="#303030"/>
  <rect x="482" y="139" width="40" height="5" rx="2" fill="#303030"/>
  <rect x="470" y="150" width="8" height="5" rx="2" fill="#303030"/>
  <rect x="482" y="150" width="30" height="5" rx="2" fill="#303030"/>
  <rect x="470" y="161" width="8" height="5" rx="2" fill="#303030"/>
  <rect x="482" y="161" width="48" height="5" rx="2" fill="#303030"/>
  <text x="510" y="51" text-anchor="middle" font-family="sans-serif" font-size="12" font-weight="800" fill="#E0E0E0" letter-spacing="1">GraphQL</text>

</svg>
