<svg width="20" height="19" viewBox="0 0 20 19" fill="none" xmlns="http://www.w3.org/2000/svg">
<path d="M14.304 2.38123C17.3172 3.23875 19.5611 5.72037 19.9479 8.74359C19.9607 8.84359 19.9701 8.9456 19.9747 9.04638C19.9757 9.06971 19.9617 9.09511 19.9999 9.0883V9.35562L19.9914 9.36534L19.9999 9.37992V10.0603L19.9914 10.0701L19.9999 10.0846V10.3155C19.9612 10.3088 19.9762 10.3342 19.9747 10.3575C19.7923 13.1835 17.6435 15.816 14.9119 16.7765C14.8297 16.8054 14.7237 16.8498 14.6417 16.8683C14.5834 16.8815 14.5021 16.8773 14.4551 16.8889C14.2702 16.8616 14.1356 16.7607 14.1056 16.5759C14.0875 16.051 14.1126 15.5229 14.1155 14.9999C14.1192 14.3068 14.1471 13.5402 13.5857 13.0251C14.459 12.9274 15.3929 12.7151 16.0684 12.1443C16.8445 11.4885 17.129 10.5027 17.1651 9.53222C17.1968 8.68005 16.9692 7.88595 16.3599 7.2571C16.5701 6.69526 16.5534 6.07431 16.374 5.50664C16.3591 5.45944 16.3056 5.2855 16.2834 5.25658C16.2368 5.19547 15.7959 5.26175 15.705 5.28125C15.1386 5.40294 14.6031 5.72699 14.1197 6.02304C12.8427 5.68896 11.4675 5.68453 10.1912 6.0234C9.63064 5.69182 8.76995 5.15841 8.0848 5.23629C7.99331 5.24668 7.96243 5.40373 7.93673 5.48234C7.75092 6.05074 7.72659 6.68269 7.94051 7.24696C7.44904 7.79136 7.16053 8.45095 7.13306 9.17889C7.08958 10.3296 7.42806 11.5907 8.42756 12.2937C9.14176 12.7961 9.82811 12.8787 10.6681 13.0254C10.6857 13.0285 10.7053 13.0138 10.6997 13.043C10.4168 13.3046 10.2716 13.6734 10.2185 14.0433C9.39052 14.4012 8.5692 14.2997 8.03055 13.5634C7.70372 13.1167 7.39221 12.6677 6.74971 12.6355C6.65306 12.6307 6.35497 12.6459 6.36713 12.7849C6.38074 12.9405 6.71909 13.1078 6.83711 13.1953C7.01989 13.3308 7.20665 13.5667 7.32466 13.758C7.49164 14.0286 7.56762 14.3404 7.78229 14.5804C8.38572 15.255 9.35164 15.2657 10.1957 15.1026C10.199 15.461 10.1915 15.82 10.1952 16.1785C10.1975 16.3973 10.2701 16.6623 10.0507 16.8158C9.98299 16.8633 9.90725 16.8683 9.83025 16.8888C9.67803 16.8494 9.55478 16.8355 9.39531 16.7796C6.56541 15.7897 4.4828 13.1089 4.31034 10.2006C4.30366 10.0875 4.33359 9.95798 4.28564 9.85379V9.27056C4.32376 9.27737 4.3099 9.25197 4.31085 9.22858C4.38696 7.27557 5.41186 5.33058 6.9066 4.03959C7.73296 3.32587 8.95034 2.63645 10.032 2.38123C11.2796 2.08682 12.4704 2.01137 13.7393 2.26349C13.9098 2.29739 14.0766 2.34648 14.2463 2.38281C14.2662 2.38706 14.2853 2.40067 14.304 2.38123Z" fill="#EEEEEE"/>
</svg>
