<svg version="1.0" xmlns="http://www.w3.org/2000/svg" viewBox="0 0 512 512" preserveAspectRatio="xMidYMid meet">
  <g transform="translate(0,512) scale(0.1,-0.1)" fill="#000000" stroke="none">
    <path d="M3706 5105 c-97 -19 -236 -64 -315 -105 -156 -78 -211 -127 -728 -643 -500 -499 -503 -502 -503 -543 0 -71 21 -81 186 -93 166 -12 262 -30 403 -77 68 -23 114 -33 130 -29 16 4 165 145 381 359 204 203 375 365 401 380 167 96 376 93 531 -6 64 -40 150 -135 182 -200 55 -112 67 -252 31 -371 -36 -120 -41 -126 -657 -743 -397 -398 -607 -601 -644 -624 -87 -52 -157 -72 -259 -74 -145 -2 -227 29 -364 138 -94 75 -149 96 -252 96 -262 0 -418 -270 -295 -508 9 -17 40 -54 68 -83 185 -181 424 -296 687 -330 146 -18 383 5 531 53 96 30 253 114 339 179 42 32 353 336 692 676 514 516 626 632 674 706 71 108 128 236 162 364 25 91 27 113 27 298 0 185 -2 207 -27 298 -115 428 -439 752 -864 864 -82 21 -125 26 -268 29 -122 2 -192 -1 -249 -11z"/>
    <path d="M2125 3469 c-189 -25 -410 -114 -561 -227 -47 -36 -328 -310 -695 -678 -669 -672 -686 -692 -770 -886 -67 -153 -90 -259 -96 -438 -6 -179 9 -290 59 -435 38 -113 66 -168 136 -275 176 -266 443 -444 764 -511 88 -18 126 -20 268 -16 186 5 296 28 441 91 193 83 212 99 772 656 515 513 517 515 517 555 0 71 -21 82 -186 94 -165 12 -259 30 -407 77 -67 22 -116 33 -130 29 -12 -4 -184 -168 -382 -364 -205 -204 -379 -369 -405 -383 -350 -199 -780 64 -757 461 5 102 32 183 81 254 19 29 300 316 623 638 614 613 620 618 740 654 80 24 162 28 243 11 95 -20 157 -51 250 -126 93 -75 159 -101 255 -101 140 0 255 71 311 193 40 88 41 197 2 280 -52 112 -204 241 -393 334 -214 104 -445 142 -680 113z"/>
  </g>
</svg>
