<svg width="19" height="19" viewBox="0 0 19 19" fill="none" xmlns="http://www.w3.org/2000/svg">
<path d="M3.46982 4.07831C3.21748 4.19706 3.01709 4.39374 2.88721 4.63866C2.8167 4.77226 2.79814 4.87616 2.79072 5.17675L2.77588 5.54784L5.79658 8.12323C7.9415 9.95272 8.87295 10.7246 9.01768 10.7951C9.32197 10.9398 9.70049 10.9324 10.0011 10.7803C10.1606 10.7023 11.1032 9.91933 13.2222 8.1121L16.2169 5.55526V5.21757C16.2169 4.9244 16.2021 4.85019 16.1093 4.65722C15.9757 4.36776 15.6862 4.10429 15.4265 4.02636C15.2632 3.97812 14.5062 3.97069 9.4667 3.97069H3.69248L3.46982 4.07831Z" fill="#EEEEEE"/>
<path d="M2.78341 10.5279C2.78341 14.5432 2.76486 14.2834 3.07658 14.6285C3.16564 14.7287 3.32521 14.8549 3.42912 14.9105L3.61837 15.0107H9.50021H15.382L15.549 14.9217C15.7754 14.8029 15.9795 14.6025 16.0983 14.3799L16.1985 14.1943L16.2096 10.5836L16.217 6.96914L15.8385 7.2957C12.6656 9.98984 11.1627 11.2516 10.9957 11.3629C10.1274 11.9381 8.87677 11.9381 8.01212 11.3629C7.89709 11.2887 6.72072 10.3053 5.39591 9.18457C4.07111 8.06016 2.94298 7.10273 2.88732 7.0582L2.78341 6.96914V10.5279Z" fill="#EEEEEE"/>
</svg>
