<svg width="15" height="15" viewBox="0 0 15 15" fill="none" xmlns="http://www.w3.org/2000/svg">
<g clip-path="url(#clip0_2005_3726)">
<path d="M1.47973 7.38791L0.523221 7.88454C0.4472 7.93812 0.240317 8.15738 0.231996 8.23739C0.223675 8.31739 0.332223 8.48381 0.346595 8.6125C0.378743 8.90421 0.300831 9.21517 0.307261 9.47745C0.311043 9.625 0.425642 9.7552 0.346595 9.91219C0.449848 9.90464 0.564825 9.92728 0.665808 9.91068C0.875339 9.87634 1.22746 9.73482 1.4419 9.64878C1.45892 9.72916 1.35756 9.7635 1.30272 9.7918C1.09886 9.89709 0.257336 10.1703 0.0799535 10.0469C0.0413755 10.0201 0.0478052 9.9737 0.0428884 9.93332C-0.00817059 9.51292 0.0462923 8.88987 0.0447795 8.44306C0.0447795 8.4306 0.0447795 8.41777 0.0447795 8.40532C0.142737 8.20531 0.249015 8.00756 0.425642 7.86227C0.618153 7.70377 1.23464 7.42791 1.47973 7.38791Z" fill="#F5C22F"/>
<path d="M2.08371 7.23697C2.12493 7.32301 1.9502 7.34414 1.87418 7.3449C1.84354 7.3449 1.82312 7.31207 1.81934 7.31244C1.88477 7.2581 2.00126 7.23999 2.08371 7.23697Z" fill="#F5C22F"/>
<path d="M1.74391 7.31244C1.77189 7.43471 1.65502 7.37735 1.55518 7.38791C1.59867 7.31961 1.66977 7.31546 1.74391 7.31244Z" fill="#F5C22F"/>
<path d="M0.119657 3.01676C0.122683 2.97525 0.107176 2.92317 0.157479 2.90355C0.148023 2.93902 0.172229 2.99299 0.119657 3.01676Z" fill="#213851"/>
<path d="M2.31001 8.85742C2.31909 8.94573 2.25063 9.03026 2.19692 9.09177C2.00933 9.30424 1.73966 9.54387 1.47945 9.64878C1.46016 9.56312 1.52786 9.56953 1.57325 9.5367C1.88036 9.31367 2.06455 9.12611 2.31039 8.85742H2.31001Z" fill="#F5C22F"/>
<path d="M9.71288 3.09223C9.71628 3.11676 9.70985 3.14318 9.71288 3.16771L9.7507 3.24319C9.75183 3.25564 9.7507 3.26847 9.7507 3.28092C9.76545 3.78321 9.52075 4.45457 9.2976 4.90138L9.22196 5.05196C9.18754 5.10705 9.15161 5.19536 9.14631 5.20253C9.11341 5.24895 9.12589 5.21611 9.07067 5.31574C8.96515 5.50556 8.53474 5.67236 8.39102 6.03163C8.36606 6.03314 8.34034 6.02936 8.31538 6.03163C8.11908 6.04899 7.76659 6.28862 7.52226 6.37089C7.506 6.29504 7.29079 6.3807 7.33391 6.2773C7.39177 6.13767 7.63043 6.09276 7.72839 5.99238C7.8532 5.86483 7.98595 5.53915 8.09563 5.37876C8.22687 5.18668 8.39215 5.02478 8.51923 4.82176C8.70191 4.53042 8.87324 4.08021 9.09109 3.80963C9.21137 3.65981 9.40312 3.61226 9.41144 3.33791C9.39783 3.3013 9.31386 3.31489 9.27755 3.31715C8.8063 3.34734 8.24465 3.45942 7.78701 3.58245C7.35963 3.69717 6.98065 3.89416 6.57861 4.03455C6.76242 3.51754 6.78096 3.03034 6.42657 2.58466C6.06084 2.12464 5.53587 1.92463 4.95456 2.0752C4.91674 2.0752 4.87891 2.0752 4.84109 2.0752C4.46061 2.07633 3.59714 2.25408 3.28058 2.45862C2.96401 2.66316 2.68867 3.08242 2.68867 3.45037V5.42858C2.76318 5.44518 2.7715 5.42065 2.81689 5.38707C2.88686 5.33499 2.91598 5.2765 3.02717 5.21989C3.10093 5.18253 3.17997 5.15989 3.25524 5.12705C3.26545 5.13158 3.31159 5.12894 3.33088 5.12705C3.46553 5.1146 3.6569 5.03799 3.80743 5.01837C4.42279 4.93836 5.17052 4.91082 5.74805 4.71232C5.76696 4.7059 5.801 4.71798 5.8237 4.71232C5.95607 4.67986 5.87665 4.6576 5.89934 4.63684C5.90463 4.63193 5.92354 4.63986 5.93716 4.63684C5.96931 4.62967 6.01469 4.64175 6.05062 4.63684C5.99503 4.70854 5.93754 4.73383 5.93716 4.86289C5.92468 4.87572 5.91258 4.88855 5.89934 4.90063C5.83353 4.96214 5.81046 4.99384 5.78587 5.08894C5.77453 5.10252 5.75902 5.11271 5.74805 5.12668C5.67997 5.21272 5.67657 5.18517 5.63459 5.31499C5.63081 5.32631 5.63837 5.3414 5.63459 5.35273C5.56575 5.37688 5.54873 5.42405 5.51999 5.48292C5.32105 5.89011 5.28625 6.3758 5.29495 6.82223C4.41863 6.84903 3.55668 7.04866 2.68905 7.1615C2.54835 7.17961 2.35849 7.1615 2.23595 7.23697C2.18565 7.2381 2.13497 7.23508 2.08504 7.23697C2.00259 7.23999 1.8861 7.2581 1.82067 7.31245C1.79571 7.31396 1.77037 7.31131 1.74503 7.31245C1.6709 7.31547 1.59979 7.31924 1.5563 7.38792C1.53171 7.39056 1.5041 7.38415 1.48065 7.38792C1.23557 7.42792 0.619081 7.70416 0.42657 7.86229C0.249944 8.00758 0.143287 8.20532 0.0457075 8.40533C0.0407907 6.71128 -0.0798598 4.70628 0.12135 3.0545C0.122863 3.04204 0.120216 3.02921 0.12135 3.01676C0.173922 2.99298 0.149717 2.93902 0.159172 2.90355C0.476872 1.6899 1.42846 0.777024 2.68716 0.509463C3.51696 0.332851 4.43073 0.321907 5.25675 0.115104C6.10622 0.0449118 6.8479 -0.0739621 7.66144 0.259262C8.84677 0.74457 9.54798 1.84576 9.71326 3.09223H9.71288Z" fill="#FEFDFD"/>
<path d="M14.1314 2.41371C14.3466 2.46088 14.6888 1.98652 14.8295 1.96086C14.9056 1.9469 14.8802 1.97029 14.8867 2.01709C14.9071 2.16087 14.8715 2.33975 14.8867 2.48881L14.9241 2.33824C14.9241 2.41899 14.9612 2.58429 14.9619 2.71524C14.8477 2.6941 14.8893 2.7726 14.8863 2.84543C14.8398 4.02172 14.9351 5.21498 14.8878 6.39089C14.8814 6.54713 14.7853 6.75053 14.8863 6.89809C14.7671 7.61435 13.9865 8.94347 13.2622 9.15896L13.2433 9.12197L13.2244 9.15896C13.2123 9.1616 13.1983 9.15594 13.1866 9.15896C13.1397 9.17141 13.0784 9.1533 12.9997 9.18047C12.9211 9.20764 12.8757 9.30576 12.8579 9.30915C12.5595 9.36689 12.4407 9.39859 12.1752 9.4952C11.9536 9.57558 11.8598 9.48048 11.7373 9.49633C11.7123 9.49973 11.7168 9.56652 11.6881 9.57294C10.9294 9.75031 10.0001 9.73333 9.19944 9.83409C9.1272 9.84314 9.16351 9.90616 9.09127 9.91522C8.7573 9.95711 8.06404 9.92654 7.74936 9.81673C7.43469 9.70691 7.12682 9.61105 6.80382 9.49784C6.73423 9.32387 6.7157 9.42916 6.62493 9.37482C6.52243 9.31368 6.31706 9.06084 6.23839 8.95215C5.99671 8.61931 5.78794 8.43288 5.62909 8.05098C5.6064 7.99626 5.57803 7.94041 5.51979 7.91512C5.51676 7.90342 5.52319 7.88908 5.51979 7.87738C5.47818 7.72907 5.4778 7.5234 5.36888 7.38755C5.36812 7.37509 5.36963 7.36226 5.36888 7.34981C5.32349 6.53203 5.38363 6.11277 5.63325 5.35273C5.63703 5.34141 5.62947 5.32631 5.63325 5.31499C5.7505 5.31914 5.75693 5.22442 5.74671 5.12668C5.75768 5.11272 5.77319 5.10253 5.78454 5.08894C5.8337 5.03007 5.88212 4.99875 5.898 4.90063C5.91086 4.88855 5.92334 4.87572 5.93582 4.86289C5.93847 4.85987 5.97932 4.87421 6.0126 4.83685C6.08938 4.75194 6.22402 4.56778 6.23764 4.44815C6.24898 4.43457 6.26373 4.42362 6.27546 4.41042C6.28718 4.39721 6.30118 4.38589 6.31328 4.37268C6.32538 4.35947 6.33938 4.34815 6.3511 4.33494H6.76638C6.68015 4.50325 6.67107 4.6976 6.60413 4.87006C6.42523 5.33046 5.96986 5.70784 5.71457 6.13012C5.63098 6.26825 5.58938 6.44599 5.48234 6.57618C5.51752 6.6309 5.55609 6.62864 5.61283 6.63543C5.85715 6.66374 6.11963 6.61883 6.3511 6.59581C6.74747 6.55656 7.14384 6.49656 7.52206 6.36976C7.76638 6.28787 8.11888 6.04823 8.31517 6.0305C8.26222 6.349 8.17221 6.5977 8.23461 6.92337C8.24785 6.99319 8.20171 7.07017 8.31517 7.04791C8.31593 7.06036 8.31517 7.07319 8.31517 7.08564C8.31517 7.09131 8.27811 7.11508 8.27773 7.14527C8.27584 7.2815 8.52584 7.63473 8.63476 7.72605C8.72364 7.80115 9.06139 7.97927 9.1654 7.98871C9.19566 7.99135 9.21721 7.9521 9.22175 7.9521C9.23423 7.9521 9.24709 7.95135 9.25957 7.9521C9.28605 8.03815 9.35715 8.02569 9.4275 8.02984C9.60602 8.04041 9.8685 8.05739 10.0149 7.9521C10.4978 7.9121 11.1968 7.79323 11.6389 7.61284C11.7705 7.55925 11.8965 7.52604 11.9944 7.38151C12.0137 7.35283 12.0084 7.29056 12.0224 7.27886C12.0519 7.25471 12.1469 7.28943 12.1658 7.27169C12.1775 7.26037 12.1605 7.1864 12.1771 7.15282C12.4589 6.58826 12.3681 6.02748 12.3553 5.41009C12.35 5.15234 12.3624 4.89308 12.3568 4.63571C12.3318 4.63533 12.3065 4.63571 12.2815 4.63571C12.162 4.63797 12.0217 4.75836 11.9037 4.82402C11.755 4.7727 11.6435 4.87987 11.5432 4.89761C11.1699 4.9629 10.6143 4.93233 10.2679 5.01347C10.2373 5.02064 10.2577 5.08177 10.1877 5.09083C10.0047 5.1146 9.76146 5.06101 9.57841 5.08479C9.51071 5.09347 9.53113 5.15045 9.49634 5.16064C9.42864 5.18102 9.20851 5.24668 9.14687 5.20064C9.15216 5.19347 9.18809 5.10517 9.22251 5.05007C9.26525 4.98139 9.26903 4.95761 9.29815 4.8995C9.5213 4.45268 9.766 3.78133 9.75125 3.27904C10.3624 3.21337 11.0308 3.00506 11.6397 2.97751C11.7955 2.97034 11.9525 2.97261 12.1056 3.00393L12.5081 2.82694C12.533 2.82807 12.5584 2.82619 12.5837 2.82694C12.8114 2.83486 12.9037 2.8126 13.1321 2.78845C13.2032 2.7809 13.2845 2.83373 13.2637 2.7141C13.2762 2.71259 13.2891 2.71561 13.3016 2.7141H13.3394C13.4146 2.70467 13.4922 2.69222 13.5659 2.67637C13.6491 2.65863 13.7558 2.71108 13.7547 2.56315C13.7796 2.56278 13.8053 2.56164 13.8303 2.56315C13.9006 2.56768 14.0054 2.69901 13.9812 2.48768C13.9914 2.48277 14.0081 2.49221 14.019 2.48768L14.0947 2.4122C14.1056 2.40805 14.1215 2.41635 14.1325 2.4122L14.1314 2.41371ZM14.9056 2.56466V2.6024C14.9301 2.58995 14.9301 2.57712 14.9056 2.56466Z" fill="#FBB918"/>
<path d="M2.23485 7.23697C2.23977 7.23697 2.27268 7.27622 2.326 7.2766C2.39371 7.27735 2.56541 7.20263 2.60929 7.23999C2.71065 7.32603 2.60929 8.16079 2.57449 8.32948C2.57184 8.34155 2.57714 8.35514 2.57449 8.36722C2.43493 8.34155 2.53175 8.48194 2.49128 8.54836C2.46368 8.59364 2.27948 8.61817 2.34794 8.81931C2.33584 8.83214 2.32184 8.84422 2.31012 8.85705C2.06428 9.12574 1.87971 9.3133 1.57298 9.53633C1.52797 9.56916 1.45989 9.56275 1.47918 9.64841C1.46821 9.65294 1.45233 9.64388 1.44136 9.64841C1.22691 9.73445 0.874794 9.87597 0.665263 9.91031C0.56428 9.92692 0.449681 9.90427 0.34605 9.91182C0.425097 9.75483 0.310498 9.62464 0.306716 9.47708C0.300286 9.21481 0.378198 8.90385 0.34605 8.61213C0.331678 8.48307 0.222752 8.31929 0.231451 8.23702C0.24015 8.15475 0.446655 7.93776 0.522676 7.88417L1.47918 7.38754C1.50263 7.38377 1.53024 7.39019 1.55482 7.38754C1.65467 7.37698 1.77154 7.43434 1.74355 7.31207C1.76852 7.31094 1.79423 7.31358 1.8192 7.31207C1.82298 7.31207 1.8434 7.3449 1.87404 7.34452C1.95006 7.34377 2.12479 7.32263 2.08357 7.23659C2.13387 7.23471 2.18417 7.23772 2.23448 7.23659L2.23485 7.23697Z" fill="#FBB918"/>
<path d="M7.78657 3.58206C8.24421 3.45904 8.80586 3.34734 9.27712 3.31677C9.31342 3.3145 9.39739 3.30092 9.411 3.33752C9.40268 3.61188 9.21093 3.6598 9.09066 3.80925C8.87318 4.07983 8.70147 4.53004 8.51879 4.82137C8.39171 5.0244 8.22643 5.1863 8.09519 5.37838C7.98551 5.53877 7.85276 5.86407 7.72795 5.992C7.62999 6.09238 7.39134 6.13691 7.33347 6.27692C7.29073 6.38032 7.50594 6.29465 7.52182 6.37051C7.14398 6.4973 6.74724 6.55731 6.35087 6.59656L6.01123 6.55882C6.01388 6.39051 6.1489 6.33164 6.23097 6.1954C6.56758 5.63462 7.00631 5.1595 7.36486 4.6123C7.48362 4.43116 7.56153 4.20134 7.66668 4.00888C7.71547 3.91944 7.87961 3.73264 7.89928 3.67528C7.92727 3.59376 7.81456 3.62924 7.78657 3.58206Z" fill="#FEE092"/>
<path d="M7.78689 3.58206C7.81487 3.62961 7.92758 3.59376 7.89959 3.67527C7.87993 3.73226 7.71578 3.91906 7.66699 4.00888C7.56223 4.20134 7.48431 4.43078 7.36518 4.6123C7.00663 5.15912 6.5679 5.63462 6.23129 6.1954C6.14921 6.33201 6.01419 6.39088 6.01154 6.55882L6.35118 6.59655C6.11971 6.61957 5.85723 6.6641 5.61291 6.63618C5.55617 6.62976 5.5176 6.63203 5.48242 6.57693C5.58946 6.44673 5.63106 6.26899 5.71465 6.13087C5.96994 5.70858 6.42569 5.33121 6.60421 4.87081C6.67115 4.69834 6.68023 4.504 6.76646 4.33606H6.35118C6.41548 4.26285 6.49793 4.06246 6.57773 4.03454C6.98015 3.89415 7.35912 3.69716 7.78613 3.58244L7.78689 3.58206Z" fill="#F5C22F"/>
<path d="M11.9033 4.82552C11.7429 4.91496 11.7319 4.92515 11.5334 4.96515C10.7221 5.12818 9.88623 5.17724 9.0708 5.31536C9.12602 5.21611 9.11354 5.24856 9.14644 5.20215C9.20809 5.24781 9.42821 5.18215 9.49591 5.16214C9.53071 5.15158 9.51029 5.09497 9.57799 5.08629C9.76104 5.06252 10.0042 5.1161 10.1873 5.09233C10.2573 5.08327 10.2368 5.02214 10.2675 5.01497C10.6139 4.93383 11.1695 4.9644 11.5428 4.89911C11.643 4.88175 11.7546 4.7742 11.9033 4.82552Z" fill="#F5C22F"/>
<path d="M5.36939 7.35017C5.26651 7.19733 5.29715 6.99657 5.29374 6.8226C5.28542 6.37616 5.32022 5.89047 5.51878 5.48328C5.54753 5.42441 5.56455 5.37724 5.63338 5.35309C5.38376 6.11313 5.32362 6.53239 5.36901 7.35017H5.36939Z" fill="#F5C22F"/>
<path d="M2.68796 7.16187C2.6596 7.54566 2.77042 7.98002 2.5745 8.32985C2.60967 8.16116 2.71066 7.3264 2.6093 7.24036C2.56542 7.203 2.39334 7.27734 2.32601 7.27697C2.27268 7.27659 2.23978 7.23734 2.23486 7.23734C2.35778 7.16224 2.54727 7.18036 2.68796 7.16187Z" fill="#F5C22F"/>
<path d="M8.3908 6.03126C8.24556 6.39392 8.29813 6.68261 8.31515 7.04867C8.20169 7.07056 8.24783 6.99395 8.23459 6.92414C8.17219 6.59846 8.2622 6.35015 8.31515 6.03126C8.34011 6.029 8.36583 6.03277 8.3908 6.03126Z" fill="#F5C22F"/>
<path d="M6.23785 4.44853C6.22423 4.56816 6.08921 4.75194 6.01281 4.83723C5.97915 4.87459 5.93868 4.86025 5.93604 4.86327C5.93604 4.73421 5.99352 4.70892 6.0495 4.63722C6.1085 4.56099 6.18982 4.50552 6.23823 4.44891L6.23785 4.44853Z" fill="#F5C22F"/>
<path d="M5.63379 5.31536C5.67539 5.18516 5.6788 5.21309 5.74725 5.12704C5.75747 5.22479 5.75141 5.31951 5.63379 5.31536Z" fill="#F5C22F"/>
<path d="M5.78467 5.08931C5.80925 4.99421 5.83232 4.96251 5.89813 4.901C5.88263 4.99912 5.83421 5.03044 5.78467 5.08931Z" fill="#F5C22F"/>
<path d="M9.75071 3.2428L9.71289 3.16733C9.71327 3.17148 9.74428 3.17827 9.75071 3.2428Z" fill="#213851"/>
<path d="M9.22168 5.05157L9.29732 4.901C9.2682 4.95912 9.26442 4.98289 9.22168 5.05157Z" fill="#F5C22F"/>
<path d="M5.52051 7.9155C5.57837 7.94078 5.60674 7.99663 5.62981 8.05135C5.78866 8.43326 5.99744 8.61968 6.23912 8.95253C6.31816 9.06121 6.52353 9.31406 6.62565 9.37519C6.71642 9.42954 6.73496 9.32387 6.80455 9.49822C7.12754 9.61105 7.42558 9.70351 7.75008 9.8171C8.07459 9.93069 8.75803 9.95786 9.09199 9.9156C9.16423 9.90654 9.12792 9.84352 9.20016 9.83446C10.0012 9.7337 10.9301 9.75068 11.6888 9.57332C11.7172 9.56652 11.7126 9.49973 11.738 9.49671C11.8605 9.48086 11.9543 9.57596 12.176 9.49558C12.4415 9.39897 12.5602 9.36727 12.8586 9.30953C12.876 9.30613 12.9226 9.20764 13.0005 9.18084C13.0784 9.15405 13.1404 9.17179 13.1873 9.15933C12.8912 9.37217 12.4581 9.48841 12.1007 9.5635C10.9634 9.80314 9.74479 9.84956 8.59842 10.0669C8.19524 10.0703 7.14267 9.82616 6.828 9.57671C6.78526 9.54275 6.81287 9.51897 6.80455 9.49822C6.28753 9.31745 5.66196 8.43967 5.52051 7.9155Z" fill="#F5C22F"/>
<path d="M5.52054 7.87774C5.38967 7.77925 5.38098 7.54301 5.36963 7.38791C5.47893 7.52376 5.47893 7.72944 5.52054 7.87774Z" fill="#F5C22F"/>
<path d="M2.57471 8.3676C2.5384 8.53817 2.46956 8.69252 2.34815 8.8197C2.2797 8.61855 2.46389 8.59365 2.4915 8.54874C2.53197 8.48232 2.43514 8.34194 2.57471 8.3676Z" fill="#F5C22F"/>
<path d="M13.2629 9.15896C13.2516 9.16236 13.2376 9.15594 13.2251 9.15896L13.244 9.12198L13.2629 9.15896Z" fill="#F5C22F"/>
<path d="M12.2807 2.82841C12.2671 2.09064 12.2062 1.43174 12.733 0.849068C13.2376 0.290926 13.9558 0.0580846 14.6793 0.00261009C14.761 -0.00380532 14.8435 0.0041196 14.9248 0.00185534C14.9475 0.536599 14.9645 1.06908 14.9641 1.60533C14.9641 1.69779 14.924 1.78723 14.9248 1.84836C14.5942 1.90271 14.4539 2.29367 14.1317 2.41367C14.1207 2.41783 14.1048 2.40952 14.0938 2.41367C14.0394 2.43481 14.0231 2.48689 14.0182 2.48915C14.0072 2.49368 13.9906 2.48424 13.9804 2.48915C13.9361 2.51028 13.8616 2.4967 13.8295 2.56463C13.8045 2.56312 13.7788 2.56425 13.7538 2.56463C13.6865 2.56576 13.5265 2.59595 13.5651 2.67784C13.4913 2.69369 13.4138 2.70614 13.3385 2.71558C13.3367 2.71558 13.3261 2.71256 13.3007 2.71558C13.2882 2.71709 13.2754 2.71407 13.2629 2.71558C13.0435 2.74275 12.7799 2.72501 12.5833 2.82879C12.5583 2.82803 12.5329 2.82992 12.5076 2.82879C12.4452 2.82577 12.3348 2.81822 12.2811 2.82879L12.2807 2.82841Z" fill="#FEFDFD"/>
<path d="M14.9623 2.71523C14.9623 2.77788 14.9616 2.8409 14.9623 2.90354C14.8995 2.94279 14.9245 3.04657 14.9237 3.11035C14.9188 3.49339 14.9245 3.87756 14.9245 4.26022C14.9245 5.04743 15.0107 6.15314 14.8867 6.89808C14.7857 6.75053 14.8821 6.54712 14.8882 6.39089C14.9355 5.21498 14.8401 4.02171 14.8867 2.84543C14.8897 2.77297 14.8477 2.6941 14.9623 2.71523Z" fill="#F5C22F"/>
<path d="M14.9246 1.84839C14.9257 2.01142 14.9238 2.1752 14.9246 2.33822L14.8871 2.4888C14.8716 2.34011 14.9072 2.16086 14.8871 2.01708C14.8803 1.97028 14.906 1.94688 14.83 1.96085C14.6889 1.98651 14.3467 2.46087 14.1318 2.4137C14.4541 2.29369 14.5944 1.90273 14.925 1.84839H14.9246Z" fill="#F5C22F"/>
<path d="M12.5075 2.82844L12.1051 3.00543C11.9519 2.97411 11.795 2.97222 11.6392 2.97901C11.8086 2.92995 11.9988 2.92392 12.1789 2.8941C12.2364 2.88467 12.2749 2.82957 12.2814 2.82844C12.3351 2.81787 12.4455 2.82542 12.5079 2.82844H12.5075Z" fill="#F5C22F"/>
<path d="M14.9245 4.26022C14.9245 3.87756 14.9192 3.49339 14.9237 3.11035C14.9245 3.04658 14.8995 2.9428 14.9623 2.90355C14.9668 3.28583 14.9668 3.67076 14.963 4.05342C14.9623 4.1172 14.9872 4.22097 14.9245 4.26022Z" fill="#FBB918"/>
<path d="M14.9625 11.6836V11.91L13.11 11.9274L13.1119 13.1535H14.9625V13.4173H13.1119V14.6985C13.7019 14.7223 14.2968 14.6758 14.8861 14.677C14.9549 14.677 14.9602 14.7381 15.0003 14.7736C14.9965 14.7777 14.9969 14.8642 15.0003 14.8868C14.9644 14.9585 14.9481 14.9596 14.8717 14.9649C14.6486 14.9804 12.9648 15.0027 12.8831 14.946C12.8192 14.9015 12.849 14.0618 12.8475 13.9075C12.8475 13.8822 12.8475 13.8573 12.8475 13.832C12.8475 13.8067 12.8475 13.7818 12.8475 13.7566C12.8475 13.7313 12.8475 13.7064 12.8475 13.6811C12.8468 13.518 12.8468 13.3539 12.8475 13.1912C12.8475 13.1286 12.8475 13.0656 12.8475 13.0029C12.8487 12.7648 12.8452 12.5252 12.8475 12.287C12.8475 12.2618 12.8475 12.2369 12.8475 12.2116C12.8487 12.1101 12.8188 11.7059 12.8853 11.684C13.5737 11.7085 14.2753 11.6508 14.9625 11.684V11.6836Z" fill="#FEFDFD"/>
<path d="M10.2412 11.6836C10.2654 11.687 10.2941 11.6791 10.3168 11.6836C10.4122 11.787 10.8501 11.9342 10.804 12.1093C10.7499 12.3123 10.4776 12.0542 10.3547 12.0044C9.99082 11.8568 9.15156 11.8131 8.99347 12.2663C8.80058 12.8199 9.16555 13.0867 9.67501 13.1158C9.69392 13.1448 9.72456 13.1433 9.75065 13.1535C10.096 13.2875 10.3736 13.2599 10.6917 13.5146C11.029 13.7848 11.068 14.1452 10.8762 14.5222C10.6743 14.9189 10.0407 14.9996 9.63757 15C9.62509 15 9.61223 15.0004 9.59975 15C9.47267 14.8925 9.28242 14.9091 9.12622 14.8509C8.94127 14.7815 8.58121 14.5864 8.58008 14.3596C8.69808 14.2536 8.77637 14.3781 8.84445 14.3973C9.15005 14.8117 10.6009 14.9192 10.6928 14.3388C10.7056 14.2566 10.7068 14.0656 10.6951 13.983C10.689 13.9411 10.6656 13.9279 10.6572 13.9075C10.4882 13.486 9.80171 13.469 9.41971 13.3524C9.06608 13.2441 8.77335 13.1614 8.70224 12.7493C8.59899 12.1516 9.00557 11.7074 9.58121 11.647C9.80285 11.624 10.0249 11.6542 10.2416 11.6844L10.2412 11.6836Z" fill="#FEFDFD"/>
<path d="M2.12129 11.7592L2.34784 11.9098C2.3607 11.9215 2.37356 11.9351 2.38566 11.9475C2.46244 12.0272 2.793 12.391 2.59292 12.4747C2.50744 12.5106 2.51312 12.454 2.48702 12.4287C2.21849 12.1634 2.06191 11.9623 1.64474 11.914C-0.148379 11.7068 -0.183553 14.7182 1.51652 14.736C1.76955 14.7386 2.07931 14.6179 2.2722 14.4537C2.43294 14.3171 2.47719 14.1246 2.6871 14.0952C2.77862 14.4813 2.21622 14.836 1.9023 14.9137C0.926507 15.1556 0.278625 14.5262 0.0433756 13.6427C0.0339202 13.6072 0.0108491 13.5197 0.00555408 13.4921V13.4167C-0.00957451 12.2291 0.915161 11.3026 2.12053 11.7585L2.12129 11.7592Z" fill="#FEFDFD"/>
<path d="M6.80474 14.1328C6.80777 14.1445 6.80172 14.1588 6.80474 14.1705C6.87433 14.4309 7.02978 14.6547 7.06911 14.9242C6.95565 14.9642 6.86072 14.9517 6.79604 14.8385C6.5642 14.2392 6.2881 13.6498 6.05701 13.0512C5.95489 12.7867 5.88265 12.4172 5.76654 12.1731C5.73553 12.1082 5.72078 12.0584 5.63379 12.0606C5.6701 11.9648 5.67199 11.8399 5.74725 11.7591C5.76276 11.7832 5.82819 11.8059 5.86828 11.8833C6.23023 12.5795 6.40837 13.446 6.80474 14.1332V14.1328Z" fill="#FEFDFD"/>
<path d="M4.72716 13.8316C4.9261 13.3501 5.0668 12.8354 5.26536 12.3527C5.34706 12.1549 5.49607 11.7323 5.69048 11.6462C5.78011 11.6066 5.73397 11.7398 5.74645 11.7591C5.67119 11.8398 5.66968 11.9647 5.63299 12.0606C5.62883 12.0715 5.63753 12.0878 5.63299 12.0983C5.54902 12.3033 5.41173 12.5048 5.32436 12.7135C5.08685 13.2803 4.81151 14.3068 4.5199 14.7747C4.39736 14.9717 4.23889 15.0087 4.31113 14.7362C4.48321 14.7747 4.4261 14.6241 4.47111 14.5362C4.49532 14.4886 4.66854 14.2841 4.68669 14.2184C4.71393 14.1192 4.71166 13.9422 4.72679 13.8316H4.72716Z" fill="#F5C22F"/>
<path d="M9.59974 14.9996C9.34974 14.991 8.90723 14.8868 8.69656 14.7513C8.57553 14.6732 8.45451 14.4717 8.5797 14.3592C8.58083 14.586 8.94089 14.7815 9.12584 14.8506C9.28204 14.9091 9.47228 14.8921 9.59936 14.9996H9.59974Z" fill="#FEFDFD"/>
<path d="M0.00655572 13.4924C-0.00819465 13.4116 0.00655572 13.4365 0.00655572 13.4169V13.4924Z" fill="#273447"/>
<path d="M4.72718 13.8316C4.71205 13.9422 4.7147 14.1192 4.68709 14.2184C4.66894 14.2841 4.49571 14.4886 4.47151 14.5362C4.42688 14.6241 4.48361 14.7747 4.31152 14.7362C4.39851 14.4079 4.60577 14.1249 4.7268 13.832L4.72718 13.8316Z" fill="#FBB918"/>
<path d="M12.2808 4.63683C12.3061 4.63646 12.3311 4.63608 12.356 4.63683C12.3621 4.89421 12.3492 5.15346 12.3545 5.41121C12.3674 6.0286 12.4582 6.58976 12.1764 7.15394C12.1597 7.18753 12.1768 7.26187 12.165 7.27282C12.1461 7.29055 12.0512 7.25583 12.0217 7.27999C12.0077 7.29131 12.013 7.35395 11.9937 7.38263C11.8957 7.52717 11.7698 7.56038 11.6382 7.61396L11.8269 7.42565C11.8489 7.41546 11.8591 7.41773 11.8647 7.38792C12.5871 6.73732 12.1692 5.51084 12.28 4.63721L12.2808 4.63683Z" fill="#F5C22F"/>
<path d="M9.22187 7.95322C9.21733 7.95322 9.19577 7.99247 9.16551 7.98983C9.0615 7.98039 8.72414 7.80189 8.63488 7.72717C8.52595 7.63547 8.27595 7.28262 8.27784 7.14639C8.27822 7.1162 8.31529 7.09242 8.31529 7.08676C8.43215 7.16148 8.4488 7.31658 8.52557 7.42338C8.70069 7.66717 8.973 7.80302 9.22187 7.95322Z" fill="#F5C22F"/>
<path d="M13.263 2.71524C13.2842 2.83486 13.2029 2.78203 13.1314 2.78958C12.903 2.81411 12.8111 2.836 12.583 2.82807C12.7797 2.72467 13.0437 2.74203 13.2627 2.71486L13.263 2.71524Z" fill="#F5C22F"/>
<path d="M10.0151 7.95322C9.86869 8.0585 9.60621 8.04115 9.42769 8.03096C9.35734 8.02681 9.28624 8.03964 9.25977 7.95322C9.52149 7.97133 9.75334 7.97473 10.0151 7.95322Z" fill="#F5C22F"/>
<path d="M13.7537 2.56465C13.7549 2.71258 13.6482 2.66013 13.565 2.67786C13.5264 2.59597 13.6868 2.56578 13.7537 2.56465Z" fill="#F5C22F"/>
<path d="M13.9805 2.48918C14.0047 2.70051 13.8996 2.56919 13.8296 2.56466C13.8617 2.49673 13.9362 2.51031 13.9805 2.48918Z" fill="#F5C22F"/>
<path d="M13.3381 2.71542H13.3003C13.3256 2.71197 13.3362 2.71542 13.3381 2.71542Z" fill="#F5C22F"/>
<path d="M14.0181 2.48919C14.023 2.4873 14.0392 2.43522 14.0937 2.41371L14.0181 2.48919Z" fill="#F5C22F"/>
<path d="M14.9058 2.56465C14.9303 2.5771 14.9303 2.58994 14.9058 2.60239V2.56465Z" fill="#F5C22F"/>
<path d="M6.27588 4.41078L6.3137 4.37305C6.30198 4.38626 6.2876 4.39758 6.27588 4.41078Z" fill="#F5C22F"/>
</g>
<defs>
<clipPath id="clip0_2005_3726">
<rect width="15" height="15" fill="white"/>
</clipPath>
</defs>
</svg>
