<?xml version="1.0" standalone="no"?>
<!DOCTYPE svg PUBLIC "-//W3C//DTD SVG 20010904//EN"
 "http://www.w3.org/TR/2001/REC-SVG-20010904/DTD/svg10.dtd">
<svg version="1.0" xmlns="http://www.w3.org/2000/svg"
 width="512.000000pt" height="512.000000pt" viewBox="0 0 512.000000 512.000000"
 preserveAspectRatio="xMidYMid meet">

<g transform="translate(0.000000,512.000000) scale(0.100000,-0.100000)"
fill="#EEE" stroke="none">
<path d="M2520 4813 c-33 -6 -2374 -1050 -2422 -1079 -20 -13 -50 -45 -65 -71
-53 -90 -30 -216 50 -277 29 -22 2332 -1254 2400 -1284 36 -15 118 -15 154 0
69 30 2372 1262 2402 1285 50 38 85 122 78 185 -8 64 -48 132 -95 162 -71 44
-2397 1074 -2437 1079 -22 2 -51 3 -65 0z"/>
<path d="M118 2820 c-77 -41 -127 -138 -114 -221 9 -57 40 -114 78 -142 18
-13 568 -309 1221 -657 1326 -707 1241 -667 1349 -618 96 45 2352 1250 2386
1275 91 68 105 216 30 307 -44 53 -95 76 -170 76 l-63 0 -1134 -605 c-624
-333 -1138 -605 -1142 -605 -4 0 -517 272 -1140 605 l-1134 605 -65 0 c-44 -1
-77 -7 -102 -20z"/>
<path d="M145 1976 c-22 -9 -59 -35 -82 -59 -84 -89 -84 -207 0 -293 34 -34
258 -157 1177 -647 624 -332 1164 -619 1200 -637 89 -45 151 -45 240 0 36 18
576 305 1200 637 919 490 1143 613 1177 647 86 89 84 208 -6 297 -53 54 -111
74 -180 65 -32 -4 -351 -170 -1177 -611 l-1134 -604 -1135 605 c-1237 660
-1184 635 -1280 600z"/>
</g>
</svg>
